<svg xmlns="http://www.w3.org/2000/svg" xmlns:xlink="http://www.w3.org/1999/xlink" version="1.1" width="467px" height="516px" style="shape-rendering:geometricPrecision; text-rendering:geometricPrecision; image-rendering:optimizeQuality; fill-rule:evenodd; clip-rule:evenodd">
<g><path style="opacity:1" fill="#fdfefe" d="M -0.5,-0.5 C 155.167,-0.5 310.833,-0.5 466.5,-0.5C 466.5,171.5 466.5,343.5 466.5,515.5C 310.833,515.5 155.167,515.5 -0.5,515.5C -0.5,343.5 -0.5,171.5 -0.5,-0.5 Z"/></g>
<g><path style="opacity:1" fill="#062539" d="M 335.5,95.5 C 335.663,93.1432 335.497,90.8098 335,88.5C 334.617,87.944 334.117,87.6107 333.5,87.5C 332.791,86.596 331.791,86.2627 330.5,86.5C 298.43,73.8378 266.097,61.5045 233.5,49.5C 200.87,61.8104 168.203,74.1438 135.5,86.5C 168.392,99.1125 201.392,111.446 234.5,123.5C 255.197,116.547 275.53,108.713 295.5,100C 292.511,98.7273 289.511,97.5606 286.5,96.5C 272.739,92.914 259.072,88.914 245.5,84.5C 244.893,84.6236 244.56,84.9569 244.5,85.5C 238.665,90.792 232.832,90.792 227,85.5C 225.748,82.9865 225.248,80.3198 225.5,77.5C 230.787,69.4348 237.12,68.6015 244.5,75C 262.592,79.8563 280.592,85.0229 298.5,90.5C 301.659,92.0037 304.993,93.337 308.5,94.5C 313.854,92.487 319.187,90.487 324.5,88.5C 324.187,92.0419 324.521,95.3752 325.5,98.5C 324.167,99.5 322.833,100.5 321.5,101.5C 314.285,104.024 307.118,106.69 300,109.5C 299.667,117.833 299.333,126.167 299,134.5C 298.5,135.5 298,136.5 297.5,137.5C 312.543,173.319 305.543,203.985 276.5,229.5C 274.326,229.75 272.659,230.75 271.5,232.5C 270.29,232.932 269.29,233.599 268.5,234.5C 245.771,244.912 223.104,244.912 200.5,234.5C 197.544,232.564 194.544,230.564 191.5,228.5C 164.852,205.594 157.019,177.261 168,143.5C 169.366,141.63 170.533,139.63 171.5,137.5C 171.192,136.692 170.692,136.025 170,135.5C 169.832,127.147 169.332,118.813 168.5,110.5C 159.808,107.151 151.141,103.817 142.5,100.5C 135.156,97.7728 127.823,94.9395 120.5,92C 116.5,88.3333 116.5,84.6667 120.5,81C 158.157,66.5601 195.99,52.7268 234,39.5C 272.253,53.1998 310.419,67.3664 348.5,82C 350.886,84.7065 351.052,87.5398 349,90.5C 344.797,92.8472 340.297,94.5138 335.5,95.5 Z"/></g>
<g><path style="opacity:1" fill="#667178" d="M 330.5,86.5 C 328.938,86.7329 327.605,87.3995 326.5,88.5C 325.833,88.5 325.167,88.5 324.5,88.5C 319.187,90.487 313.854,92.487 308.5,94.5C 304.993,93.337 301.659,92.0037 298.5,90.5C 303.193,90.1021 307.526,88.6021 311.5,86C 285.725,75.6261 259.725,65.4594 233.5,55.5C 208.053,66.2237 182.386,76.3904 156.5,86C 156.167,86.3333 155.833,86.6667 155.5,87C 181.313,98.1119 207.313,108.612 233.5,118.5C 242.991,115.225 252.325,111.559 261.5,107.5C 250.699,101.516 239.699,96.0164 228.5,91C 224.467,87.1427 223.467,82.6427 225.5,77.5C 225.248,80.3198 225.748,82.9865 227,85.5C 232.832,90.792 238.665,90.792 244.5,85.5C 245.987,86.8036 247.654,87.9702 249.5,89C 258.614,92.3902 267.614,96.0569 276.5,100C 280.638,100.749 283.972,99.5827 286.5,96.5C 289.511,97.5606 292.511,98.7273 295.5,100C 275.53,108.713 255.197,116.547 234.5,123.5C 201.392,111.446 168.392,99.1125 135.5,86.5C 168.203,74.1438 200.87,61.8104 233.5,49.5C 266.097,61.5045 298.43,73.8378 330.5,86.5 Z"/></g>
<g><path style="opacity:1" fill="#8c979e" d="M 298.5,90.5 C 280.592,85.0229 262.592,79.8563 244.5,75C 237.12,68.6015 230.787,69.4348 225.5,77.5C 223.467,82.6427 224.467,87.1427 228.5,91C 239.699,96.0164 250.699,101.516 261.5,107.5C 252.325,111.559 242.991,115.225 233.5,118.5C 207.313,108.612 181.313,98.1119 155.5,87C 155.833,86.6667 156.167,86.3333 156.5,86C 182.386,76.3904 208.053,66.2237 233.5,55.5C 259.725,65.4594 285.725,75.6261 311.5,86C 307.526,88.6021 303.193,90.1021 298.5,90.5 Z"/></g>
<g><path style="opacity:1" fill="#83939d" d="M 286.5,96.5 C 283.972,99.5827 280.638,100.749 276.5,100C 267.614,96.0569 258.614,92.3902 249.5,89C 247.654,87.9702 245.987,86.8036 244.5,85.5C 244.56,84.9569 244.893,84.6236 245.5,84.5C 259.072,88.914 272.739,92.914 286.5,96.5 Z"/></g>
<g><path style="opacity:1" fill="#1e1f10" d="M 324.5,88.5 C 325.167,88.5 325.833,88.5 326.5,88.5C 326.5,91.8333 326.5,95.1667 326.5,98.5C 326.167,98.5 325.833,98.5 325.5,98.5C 324.521,95.3752 324.187,92.0419 324.5,88.5 Z"/></g>
<g><path style="opacity:1" fill="#bea767" d="M 330.5,86.5 C 331.791,86.2627 332.791,86.596 333.5,87.5C 331.901,87.2322 330.568,87.5655 329.5,88.5C 328.883,88.6107 328.383,88.944 328,89.5C 327.5,97.8267 327.334,106.16 327.5,114.5C 327.5,115.167 327.5,115.833 327.5,116.5C 326.833,116.833 326.167,117.167 325.5,117.5C 326.36,113.566 326.693,109.566 326.5,105.5C 326.5,105.167 326.5,104.833 326.5,104.5C 326.5,102.5 326.5,100.5 326.5,98.5C 326.5,95.1667 326.5,91.8333 326.5,88.5C 327.605,87.3995 328.938,86.7329 330.5,86.5 Z"/></g>
<g><path style="opacity:1" fill="#eefaf9" d="M 325.5,98.5 C 325.833,98.5 326.167,98.5 326.5,98.5C 326.5,100.5 326.5,102.5 326.5,104.5C 324.632,103.737 322.965,102.737 321.5,101.5C 322.833,100.5 324.167,99.5 325.5,98.5 Z"/></g>
<g><path style="opacity:1" fill="#7aac89" d="M 326.5,105.5 C 326.693,109.566 326.36,113.566 325.5,117.5C 324.659,119.379 324.325,121.379 324.5,123.5C 323.853,122.726 323.52,121.726 323.5,120.5C 324.721,115.409 325.721,110.409 326.5,105.5 Z"/></g>
<g><path style="opacity:1" fill="#dc9924" d="M 329.5,88.5 C 330.822,97.3418 330.822,106.342 329.5,115.5C 328.817,115.137 328.15,114.804 327.5,114.5C 327.334,106.16 327.5,97.8267 328,89.5C 328.383,88.944 328.883,88.6107 329.5,88.5 Z"/></g>
<g><path style="opacity:1" fill="#3f5057" d="M 179.5,114.5 C 197.178,122.169 215.178,128.836 233.5,134.5C 237.231,133.979 240.898,133.146 244.5,132C 258.931,125.891 273.597,120.391 288.5,115.5C 288.828,120.875 288.495,126.208 287.5,131.5C 251.39,153.001 215.557,152.668 180,130.5C 179.501,125.177 179.334,119.844 179.5,114.5 Z"/></g>
<g><path style="opacity:1" fill="#f5ba3e" d="M 329.5,88.5 C 330.568,87.5655 331.901,87.2322 333.5,87.5C 334.117,87.6107 334.617,87.944 335,88.5C 335.497,90.8098 335.663,93.1432 335.5,95.5C 335.5,100.833 335.5,106.167 335.5,111.5C 335.34,113.199 335.506,114.866 336,116.5C 337.698,117.529 338.532,119.029 338.5,121C 337.131,124.012 336.464,127.179 336.5,130.5C 337.908,134.686 338.575,139.019 338.5,143.5C 338.5,152.833 338.5,162.167 338.5,171.5C 336.5,171.5 334.5,171.5 332.5,171.5C 332.715,169.821 332.048,168.821 330.5,168.5C 329.557,155.537 329.223,142.537 329.5,129.5C 331.977,129.949 333.977,129.283 335.5,127.5C 333.093,126.103 330.593,124.77 328,123.5C 327.503,121.19 327.337,118.857 327.5,116.5C 327.5,115.833 327.5,115.167 327.5,114.5C 328.15,114.804 328.817,115.137 329.5,115.5C 330.822,106.342 330.822,97.3418 329.5,88.5 Z"/></g>
<g><path style="opacity:1" fill="#3dbbbb" d="M 142.5,100.5 C 151.141,103.817 159.808,107.151 168.5,110.5C 169.332,118.813 169.832,127.147 170,135.5C 170.692,136.025 171.192,136.692 171.5,137.5C 170.533,139.63 169.366,141.63 168,143.5C 157.019,177.261 164.852,205.594 191.5,228.5C 191.218,229.778 190.551,230.778 189.5,231.5C 171.14,235.762 154.973,244.095 141,256.5C 136.576,262.342 132.909,268.676 130,275.5C 124.464,289.609 119.63,303.942 115.5,318.5C 113.167,318.5 110.833,318.5 108.5,318.5C 105.167,317.833 101.833,317.167 98.5,316.5C 99.3764,316.631 100.043,316.298 100.5,315.5C 74.0442,271.508 69.2109,225.175 86,176.5C 97.7791,145.95 116.612,120.617 142.5,100.5 Z"/></g>
<g><path style="opacity:1" fill="#cfb898" d="M 186.5,146.5 C 185.209,146.263 184.209,146.596 183.5,147.5C 182.178,147.33 181.011,147.663 180,148.5C 179.685,151.636 178.518,154.303 176.5,156.5C 175.502,165.475 175.168,174.475 175.5,183.5C 172.433,171.711 173.1,160.044 177.5,148.5C 178.038,146.883 178.371,145.216 178.5,143.5C 181.649,143.415 184.316,144.415 186.5,146.5 Z"/></g>
<g><path style="opacity:1" fill="#dbd1b9" d="M 284.5,145.5 C 284.5,145.833 284.5,146.167 284.5,146.5C 284.5,146.833 284.5,147.167 284.5,147.5C 274.215,150.988 263.882,154.321 253.5,157.5C 243.519,158.499 233.519,158.666 223.5,158C 219.233,157.811 215.233,156.977 211.5,155.5C 236.859,159.598 261.192,156.264 284.5,145.5 Z"/></g>
<g><path style="opacity:1" fill="#fad7ac" d="M 284.5,147.5 C 293.03,170.717 288.863,191.383 272,209.5C 268.141,213.537 263.641,216.537 258.5,218.5C 256.554,217.746 255.721,216.412 256,214.5C 258.147,213.887 260.314,213.221 262.5,212.5C 259.085,211.289 255.752,209.956 252.5,208.5C 254.805,206.419 257.305,206.086 260,207.5C 265.91,206.015 267.91,202.348 266,196.5C 264.989,195.663 263.822,195.33 262.5,195.5C 262.664,198.187 262.497,200.854 262,203.5C 261.586,203.957 261.086,204.291 260.5,204.5C 259.633,200.535 259.633,196.535 260.5,192.5C 251.374,191.87 251.207,190.537 260,188.5C 260.893,189.711 261.726,189.711 262.5,188.5C 261.975,187.808 261.308,187.308 260.5,187C 263.121,185.405 265.787,183.905 268.5,182.5C 269.429,181.311 269.762,179.978 269.5,178.5C 270.117,178.389 270.617,178.056 271,177.5C 271.667,175.167 271.667,172.833 271,170.5C 269.282,168.103 268.115,165.436 267.5,162.5C 265.13,164.098 263.464,163.598 262.5,161C 262.905,160.055 263.572,159.388 264.5,159C 259.56,159.326 254.56,159.492 249.5,159.5C 249.424,161.923 250.424,163.756 252.5,165C 251.66,166.171 250.827,167.338 250,168.5C 249.085,165.518 247.585,162.852 245.5,160.5C 248.184,159.247 250.85,158.247 253.5,157.5C 263.882,154.321 274.215,150.988 284.5,147.5 Z"/></g>
<g><path style="opacity:1" fill="#f7d7af" d="M 186.5,146.5 C 194.621,150.096 202.954,153.096 211.5,155.5C 215.233,156.977 219.233,157.811 223.5,158C 233.519,158.666 243.519,158.499 253.5,157.5C 250.85,158.247 248.184,159.247 245.5,160.5C 247.585,162.852 249.085,165.518 250,168.5C 250.827,167.338 251.66,166.171 252.5,165C 250.424,163.756 249.424,161.923 249.5,159.5C 254.56,159.492 259.56,159.326 264.5,159C 263.572,159.388 262.905,160.055 262.5,161C 263.464,163.598 265.13,164.098 267.5,162.5C 268.115,165.436 269.282,168.103 271,170.5C 271.667,172.833 271.667,175.167 271,177.5C 270.617,178.056 270.117,178.389 269.5,178.5C 269.762,179.978 269.429,181.311 268.5,182.5C 265.787,183.905 263.121,185.405 260.5,187C 261.308,187.308 261.975,187.808 262.5,188.5C 261.726,189.711 260.893,189.711 260,188.5C 251.207,190.537 251.374,191.87 260.5,192.5C 259.633,196.535 259.633,200.535 260.5,204.5C 261.086,204.291 261.586,203.957 262,203.5C 262.497,200.854 262.664,198.187 262.5,195.5C 263.822,195.33 264.989,195.663 266,196.5C 267.91,202.348 265.91,206.015 260,207.5C 257.305,206.086 254.805,206.419 252.5,208.5C 255.752,209.956 259.085,211.289 262.5,212.5C 260.314,213.221 258.147,213.887 256,214.5C 255.721,216.412 256.554,217.746 258.5,218.5C 254.415,221.504 249.748,223.337 244.5,224C 233.896,225.338 223.563,224.338 213.5,221C 209.845,218.173 205.845,216.007 201.5,214.5C 181.594,195.873 175.594,173.54 183.5,147.5C 184.209,146.596 185.209,146.263 186.5,146.5 Z"/></g>
<g><path style="opacity:1" fill="#c4ae92" d="M 287.5,199.5 C 288.876,194.871 290.376,190.204 292,185.5C 292.968,181.056 293.468,176.556 293.5,172C 291.755,164.887 290.922,157.72 291,150.5C 289.974,147.307 287.808,145.974 284.5,146.5C 284.5,146.167 284.5,145.833 284.5,145.5C 287.144,142.546 289.311,142.879 291,146.5C 297.893,164.838 296.726,182.505 287.5,199.5 Z"/></g>
<g><path style="opacity:1" fill="#16262d" d="M 269.5,178.5 C 266.231,183.54 261.565,185.373 255.5,184C 250.838,180.71 249.505,176.543 251.5,171.5C 253.539,165.869 257.539,164.036 263.5,166C 268.564,168.629 270.564,172.796 269.5,178.5 Z"/></g>
<g><path style="opacity:1" fill="#04243b" d="M 251.5,171.5 C 253.59,168.125 256.59,166.959 260.5,168C 261.833,169.333 261.833,170.667 260.5,172C 261.924,174.218 263.924,175.718 266.5,176.5C 265.846,178.115 265.346,179.782 265,181.5C 256.094,184.093 251.594,180.76 251.5,171.5 Z"/></g>
<g><path style="opacity:1" fill="#e5b985" d="M 183.5,147.5 C 175.594,173.54 181.594,195.873 201.5,214.5C 202.887,217.312 201.887,218.145 198.5,217C 195.458,214.158 192.458,211.324 189.5,208.5C 188.675,207.614 187.675,207.281 186.5,207.5C 182.754,199.457 179.087,191.457 175.5,183.5C 175.168,174.475 175.502,165.475 176.5,156.5C 178.518,154.303 179.685,151.636 180,148.5C 181.011,147.663 182.178,147.33 183.5,147.5 Z"/></g>
<g><path style="opacity:1" fill="#082438" d="M 214.5,167.5 C 215.212,169.928 216.212,172.261 217.5,174.5C 215.896,176.179 215.229,178.179 215.5,180.5C 205.735,185.398 200.735,182.398 200.5,171.5C 202.588,165.873 206.588,164.039 212.5,166C 213.416,166.278 214.082,166.778 214.5,167.5 Z"/></g>
<g><path style="opacity:1" fill="#1c2626" d="M 214.5,167.5 C 218.171,170.249 219.337,173.916 218,178.5C 212.331,185.932 206.331,186.266 200,179.5C 199.199,176.633 199.366,173.966 200.5,171.5C 200.735,182.398 205.735,185.398 215.5,180.5C 215.229,178.179 215.896,176.179 217.5,174.5C 216.212,172.261 215.212,169.928 214.5,167.5 Z"/></g>
<g><path style="opacity:1" fill="#40bbbb" d="M 321.5,101.5 C 322.965,102.737 324.632,103.737 326.5,104.5C 326.5,104.833 326.5,105.167 326.5,105.5C 325.721,110.409 324.721,115.409 323.5,120.5C 323.52,121.726 323.853,122.726 324.5,123.5C 325.455,125.746 326.122,128.079 326.5,130.5C 324.892,133.21 323.725,136.21 323,139.5C 322.174,150.674 322.341,161.674 323.5,172.5C 323.5,173.167 323.833,173.5 324.5,173.5C 327.74,174.847 331.24,175.514 335,175.5C 337.295,175.453 339.129,174.787 340.5,173.5C 341.166,169.681 341.499,165.681 341.5,161.5C 341.667,155.26 341,149.26 339.5,143.5C 340.161,138.644 339.161,134.31 336.5,130.5C 336.464,127.179 337.131,124.012 338.5,121C 338.532,119.029 337.698,117.529 336,116.5C 335.506,114.866 335.34,113.199 335.5,111.5C 336.552,111.351 337.552,111.517 338.5,112C 391.738,163.131 405.905,223.631 381,293.5C 377.594,301.316 373.428,308.65 368.5,315.5C 363.823,316.08 359.49,317.413 355.5,319.5C 349.935,304.648 344.435,289.648 339,274.5C 334.061,261.563 325.561,251.73 313.5,245C 302.697,239.096 291.364,234.596 279.5,231.5C 278.5,230.833 277.5,230.167 276.5,229.5C 305.543,203.985 312.543,173.319 297.5,137.5C 298,136.5 298.5,135.5 299,134.5C 299.333,126.167 299.667,117.833 300,109.5C 307.118,106.69 314.285,104.024 321.5,101.5 Z"/></g>
<g><path style="opacity:1" fill="#b2bb73" d="M 339.5,152.5 C 340.491,159.313 340.825,166.313 340.5,173.5C 339.129,174.787 337.295,175.453 335,175.5C 331.24,175.514 327.74,174.847 324.5,173.5C 329.507,173.249 334.507,172.916 339.5,172.5C 339.5,165.833 339.5,159.167 339.5,152.5 Z"/></g>
<g><path style="opacity:1" fill="#deb045" d="M 324.5,140.5 C 324.5,151.167 324.5,161.833 324.5,172.5C 327.911,173.067 329.911,171.734 330.5,168.5C 332.048,168.821 332.715,169.821 332.5,171.5C 334.5,171.5 336.5,171.5 338.5,171.5C 338.5,162.167 338.5,152.833 338.5,143.5C 338.833,143.5 339.167,143.5 339.5,143.5C 339.5,146.5 339.5,149.5 339.5,152.5C 339.5,159.167 339.5,165.833 339.5,172.5C 334.507,172.916 329.507,173.249 324.5,173.5C 323.833,173.5 323.5,173.167 323.5,172.5C 323.172,161.654 323.506,150.987 324.5,140.5 Z"/></g>
<g><path style="opacity:1" fill="#85b185" d="M 339.5,143.5 C 341,149.26 341.667,155.26 341.5,161.5C 341.499,165.681 341.166,169.681 340.5,173.5C 340.825,166.313 340.491,159.313 339.5,152.5C 339.5,149.5 339.5,146.5 339.5,143.5 Z"/></g>
<g><path style="opacity:1" fill="#e59922" d="M 327.5,116.5 C 327.337,118.857 327.503,121.19 328,123.5C 330.593,124.77 333.093,126.103 335.5,127.5C 333.977,129.283 331.977,129.949 329.5,129.5C 329.223,142.537 329.557,155.537 330.5,168.5C 329.911,171.734 327.911,173.067 324.5,172.5C 324.5,161.833 324.5,151.167 324.5,140.5C 325.581,137.373 326.247,134.04 326.5,130.5C 328.115,127.598 327.449,125.265 324.5,123.5C 324.325,121.379 324.659,119.379 325.5,117.5C 326.167,117.167 326.833,116.833 327.5,116.5 Z"/></g>
<g><path style="opacity:1" fill="#91ae81" d="M 326.5,130.5 C 326.247,134.04 325.581,137.373 324.5,140.5C 323.506,150.987 323.172,161.654 323.5,172.5C 322.341,161.674 322.174,150.674 323,139.5C 323.725,136.21 324.892,133.21 326.5,130.5 Z"/></g>
<g><path style="opacity:1" fill="#adc278" d="M 336.5,130.5 C 339.161,134.31 340.161,138.644 339.5,143.5C 339.167,143.5 338.833,143.5 338.5,143.5C 338.575,139.019 337.908,134.686 336.5,130.5 Z"/></g>
<g><path style="opacity:1" fill="#acab68" d="M 324.5,123.5 C 327.449,125.265 328.115,127.598 326.5,130.5C 326.122,128.079 325.455,125.746 324.5,123.5 Z"/></g>
<g><path style="opacity:1" fill="#d0b89b" d="M 175.5,183.5 C 179.087,191.457 182.754,199.457 186.5,207.5C 180.699,200.56 177.033,192.56 175.5,183.5 Z"/></g>
<g><path style="opacity:1" fill="#13252b" d="M 177.5,148.5 C 173.1,160.044 172.433,171.711 175.5,183.5C 177.033,192.56 180.699,200.56 186.5,207.5C 202.693,228.898 224.027,236.565 250.5,230.5C 249.942,231.79 248.942,232.623 247.5,233C 237.816,233.832 228.149,233.665 218.5,232.5C 214.507,230.28 210.174,229.114 205.5,229C 200.6,224.669 195.266,221.169 189.5,218.5C 189.5,217.167 189.5,215.833 189.5,214.5C 188.325,214.719 187.325,214.386 186.5,213.5C 185.833,211.833 185.167,210.167 184.5,208.5C 183.675,207.614 182.675,207.281 181.5,207.5C 181.5,206.167 181.5,204.833 181.5,203.5C 174.564,202.224 172.231,198.224 174.5,191.5C 174.291,190.006 173.624,188.839 172.5,188C 172.45,177.274 172.617,166.441 173,155.5C 173.931,153.541 174.764,151.541 175.5,149.5C 175.957,148.702 176.624,148.369 177.5,148.5 Z"/></g>
<g><path style="opacity:1" fill="#0d2432" d="M 211.5,194.5 C 212.873,194.343 214.207,194.51 215.5,195C 228.167,206.333 240.833,206.333 253.5,195C 254.793,194.51 256.127,194.343 257.5,194.5C 256.874,202.314 252.874,207.814 245.5,211C 235.109,214.026 225.443,212.693 216.5,207C 212.651,203.502 210.984,199.335 211.5,194.5 Z"/></g>
<g><path style="opacity:1" fill="#deb889" d="M 284.5,146.5 C 287.808,145.974 289.974,147.307 291,150.5C 290.922,157.72 291.755,164.887 293.5,172C 293.468,176.556 292.968,181.056 292,185.5C 290.376,190.204 288.876,194.871 287.5,199.5C 279.372,214.747 267.039,225.08 250.5,230.5C 224.027,236.565 202.693,228.898 186.5,207.5C 187.675,207.281 188.675,207.614 189.5,208.5C 192.458,211.324 195.458,214.158 198.5,217C 201.887,218.145 202.887,217.312 201.5,214.5C 205.845,216.007 209.845,218.173 213.5,221C 223.563,224.338 233.896,225.338 244.5,224C 249.748,223.337 254.415,221.504 258.5,218.5C 263.641,216.537 268.141,213.537 272,209.5C 288.863,191.383 293.03,170.717 284.5,147.5C 284.5,147.167 284.5,146.833 284.5,146.5 Z"/></g>
<g><path style="opacity:1" fill="#f7fafa" d="M 200.5,234.5 C 223.104,244.912 245.771,244.912 268.5,234.5C 266.246,247.262 262.579,259.596 257.5,271.5C 256.325,271.719 255.325,271.386 254.5,270.5C 253.192,267.536 251.192,265.203 248.5,263.5C 248.008,261.181 247.008,259.181 245.5,257.5C 245.068,256.29 244.401,255.29 243.5,254.5C 242.758,252.574 241.758,250.741 240.5,249C 236.833,248.333 233.167,248.333 229.5,249C 227.121,251.599 225.121,254.433 223.5,257.5C 222.27,259.297 221.604,261.297 221.5,263.5C 218.347,265.502 216.013,268.335 214.5,272C 214.85,273.257 215.517,273.591 216.5,273C 218.364,270.312 220.364,267.812 222.5,265.5C 224.139,267.806 226.139,269.806 228.5,271.5C 227.624,275.462 226.958,279.462 226.5,283.5C 223.5,283.5 220.5,283.5 217.5,283.5C 217.5,283.167 217.5,282.833 217.5,282.5C 210.741,269.996 205.408,256.996 201.5,243.5C 201.037,240.518 200.704,237.518 200.5,234.5 Z"/></g>
<g><path style="opacity:1" fill="#317695" d="M 243.5,254.5 C 241.717,253.886 240.384,252.72 239.5,251C 238.552,250.517 237.552,250.351 236.5,250.5C 236.785,252.288 236.452,253.955 235.5,255.5C 234.46,253.625 232.96,252.292 231,251.5C 228.587,253.409 226.754,255.742 225.5,258.5C 225.158,257.662 224.492,257.328 223.5,257.5C 225.121,254.433 227.121,251.599 229.5,249C 233.167,248.333 236.833,248.333 240.5,249C 241.758,250.741 242.758,252.574 243.5,254.5 Z"/></g>
<g><path style="opacity:1" fill="#146ea1" d="M 243.5,254.5 C 244.401,255.29 245.068,256.29 245.5,257.5C 244.508,257.328 243.842,257.662 243.5,258.5C 240.793,263.854 236.459,266.02 230.5,265C 228.21,263.223 226.543,261.056 225.5,258.5C 226.754,255.742 228.587,253.409 231,251.5C 232.96,252.292 234.46,253.625 235.5,255.5C 236.452,253.955 236.785,252.288 236.5,250.5C 237.552,250.351 238.552,250.517 239.5,251C 240.384,252.72 241.717,253.886 243.5,254.5 Z"/></g>
<g><path style="opacity:1" fill="#b9ccd5" d="M 221.5,263.5 C 222.338,263.842 222.672,264.508 222.5,265.5C 220.364,267.812 218.364,270.312 216.5,273C 215.517,273.591 214.85,273.257 214.5,272C 216.013,268.335 218.347,265.502 221.5,263.5 Z"/></g>
<g><path style="opacity:1" fill="#0d587e" d="M 223.5,257.5 C 224.492,257.328 225.158,257.662 225.5,258.5C 226.543,261.056 228.21,263.223 230.5,265C 236.459,266.02 240.793,263.854 243.5,258.5C 245.465,263.055 244.132,266.555 239.5,269C 237.555,268.872 235.722,269.038 234,269.5C 232.031,272.848 231.031,276.514 231,280.5C 231.07,277.008 230.237,274.008 228.5,271.5C 226.139,269.806 224.139,267.806 222.5,265.5C 222.672,264.508 222.338,263.842 221.5,263.5C 221.604,261.297 222.27,259.297 223.5,257.5 Z"/></g>
<g><path style="opacity:1" fill="#4496b7" d="M 184.5,243.5 C 184.938,243.435 185.272,243.601 185.5,244C 183.35,247.147 181.35,250.313 179.5,253.5C 159.963,259.537 146.796,272.203 140,291.5C 136.699,301.038 133.866,310.705 131.5,320.5C 129.345,320.628 127.345,320.128 125.5,319C 130.924,300.473 138.091,282.64 147,265.5C 157.909,255.462 170.409,248.129 184.5,243.5 Z"/></g>
<g><path style="opacity:1" fill="#b7ced1" d="M 248.5,263.5 C 251.192,265.203 253.192,267.536 254.5,270.5C 255.325,271.386 256.325,271.719 257.5,271.5C 256.404,274.032 255.071,276.365 253.5,278.5C 252.446,273.764 250.446,269.431 247.5,265.5C 247.328,264.508 247.662,263.842 248.5,263.5 Z"/></g>
<g><path style="opacity:1" fill="#f0f8f9" d="M 247.5,265.5 C 250.446,269.431 252.446,273.764 253.5,278.5C 253.107,280.284 252.441,281.95 251.5,283.5C 248.833,283.5 246.167,283.5 243.5,283.5C 242.811,279.931 241.811,276.431 240.5,273C 242.998,270.668 245.331,268.168 247.5,265.5 Z"/></g>
<g><path style="opacity:1" fill="#14709f" d="M 201.5,243.5 C 205.408,256.996 210.741,269.996 217.5,282.5C 208.833,282.5 200.167,282.5 191.5,282.5C 191.5,281.5 191.5,280.5 191.5,279.5C 194.183,279.773 195.683,278.773 196,276.5C 190.673,272.672 186.173,268.006 182.5,262.5C 186.024,254.126 189.524,245.793 193,237.5C 194.356,236.62 195.856,236.286 197.5,236.5C 198.217,239.237 199.55,241.57 201.5,243.5 Z"/></g>
<g><path style="opacity:1" fill="#064f73" d="M 276.5,229.5 C 277.5,230.167 278.5,230.833 279.5,231.5C 277.775,231.843 277.275,232.843 278,234.5C 279.751,236.49 280.751,238.823 281,241.5C 282.302,242.085 283.469,242.751 284.5,243.5C 284.062,243.435 283.728,243.601 283.5,244C 285.636,247.11 287.636,250.277 289.5,253.5C 291.905,257.973 294.571,262.306 297.5,266.5C 296.579,268.756 294.912,269.756 292.5,269.5C 292.649,270.552 292.483,271.552 292,272.5C 289.108,273.394 286.774,275.06 285,277.5C 285.019,279.107 285.185,280.774 285.5,282.5C 290.032,282.182 294.366,282.515 298.5,283.5C 283.5,283.5 268.5,283.5 253.5,283.5C 261.323,282.671 269.323,282.171 277.5,282C 275.792,280.49 274.126,278.99 272.5,277.5C 276.602,273.277 280.935,269.277 285.5,265.5C 285.833,264.667 286.167,263.833 286.5,263C 282.485,253.297 278.652,243.463 275,233.5C 273.989,232.663 272.822,232.33 271.5,232.5C 272.659,230.75 274.326,229.75 276.5,229.5 Z"/></g>
<g><path style="opacity:1" fill="#074d71" d="M 191.5,228.5 C 194.544,230.564 197.544,232.564 200.5,234.5C 200.704,237.518 201.037,240.518 201.5,243.5C 199.55,241.57 198.217,239.237 197.5,236.5C 195.856,236.286 194.356,236.62 193,237.5C 189.524,245.793 186.024,254.126 182.5,262.5C 186.173,268.006 190.673,272.672 196,276.5C 195.683,278.773 194.183,279.773 191.5,279.5C 191.5,280.5 191.5,281.5 191.5,282.5C 200.167,282.5 208.833,282.5 217.5,282.5C 217.5,282.833 217.5,283.167 217.5,283.5C 205.833,283.5 194.167,283.5 182.5,283.5C 183.39,281.218 183.556,278.885 183,276.5C 180.341,274.671 177.841,272.671 175.5,270.5C 174.16,269.312 173.493,267.812 173.5,266C 175.701,261.955 177.701,257.788 179.5,253.5C 181.35,250.313 183.35,247.147 185.5,244C 185.272,243.601 184.938,243.435 184.5,243.5C 187.291,240.621 189.624,237.288 191.5,233.5C 191.253,232.287 190.586,231.62 189.5,231.5C 190.551,230.778 191.218,229.778 191.5,228.5 Z"/></g>
<g><path style="opacity:1" fill="#14719f" d="M 271.5,232.5 C 272.822,232.33 273.989,232.663 275,233.5C 278.652,243.463 282.485,253.297 286.5,263C 286.167,263.833 285.833,264.667 285.5,265.5C 280.935,269.277 276.602,273.277 272.5,277.5C 274.126,278.99 275.792,280.49 277.5,282C 269.323,282.171 261.323,282.671 253.5,283.5C 252.833,283.5 252.167,283.5 251.5,283.5C 252.441,281.95 253.107,280.284 253.5,278.5C 255.071,276.365 256.404,274.032 257.5,271.5C 262.579,259.596 266.246,247.262 268.5,234.5C 269.29,233.599 270.29,232.932 271.5,232.5 Z"/></g>
<g><path style="opacity:1" fill="#196583" d="M 243.5,258.5 C 243.842,257.662 244.508,257.328 245.5,257.5C 247.008,259.181 248.008,261.181 248.5,263.5C 247.662,263.842 247.328,264.508 247.5,265.5C 245.331,268.168 242.998,270.668 240.5,273C 241.811,276.431 242.811,279.931 243.5,283.5C 237.833,283.5 232.167,283.5 226.5,283.5C 226.958,279.462 227.624,275.462 228.5,271.5C 230.237,274.008 231.07,277.008 231,280.5C 231.031,276.514 232.031,272.848 234,269.5C 235.722,269.038 237.555,268.872 239.5,269C 244.132,266.555 245.465,263.055 243.5,258.5 Z"/></g>
<g><path style="opacity:1" fill="#4897b6" d="M 284.5,243.5 C 296.329,247.748 307.329,253.581 317.5,261C 323.984,268.127 328.818,276.293 332,285.5C 335.647,296.777 339.481,307.944 343.5,319C 343.316,320.376 342.649,321.209 341.5,321.5C 340.167,321.5 338.833,321.5 337.5,321.5C 334.933,305.546 329.766,290.546 322,276.5C 313.507,265.505 302.673,257.839 289.5,253.5C 287.636,250.277 285.636,247.11 283.5,244C 283.728,243.601 284.062,243.435 284.5,243.5 Z"/></g>
<g><path style="opacity:1" fill="#136e9f" d="M 289.5,253.5 C 302.673,257.839 313.507,265.505 322,276.5C 329.766,290.546 334.933,305.546 337.5,321.5C 338.833,321.5 340.167,321.5 341.5,321.5C 337.623,322.641 333.623,323.808 329.5,325C 324.754,327.308 322.087,331.141 321.5,336.5C 322.942,339.028 323.442,341.695 323,344.5C 318.08,347.93 314.913,352.597 313.5,358.5C 311.827,360.086 309.827,360.753 307.5,360.5C 310.762,343.206 313.928,325.872 317,308.5C 319.283,297.995 315.783,290.162 306.5,285C 303.937,283.921 301.271,283.421 298.5,283.5C 294.366,282.515 290.032,282.182 285.5,282.5C 285.185,280.774 285.019,279.107 285,277.5C 286.774,275.06 289.108,273.394 292,272.5C 292.483,271.552 292.649,270.552 292.5,269.5C 294.912,269.756 296.579,268.756 297.5,266.5C 294.571,262.306 291.905,257.973 289.5,253.5 Z"/></g>
<g><path style="opacity:1" fill="#042940" d="M 189.5,231.5 C 190.586,231.62 191.253,232.287 191.5,233.5C 189.624,237.288 187.291,240.621 184.5,243.5C 170.409,248.129 157.909,255.462 147,265.5C 138.091,282.64 130.924,300.473 125.5,319C 127.345,320.128 129.345,320.628 131.5,320.5C 143.953,321.286 148.287,327.453 144.5,339C 145.27,340.775 146.437,342.275 148,343.5C 149.832,347.871 149.665,352.204 147.5,356.5C 145.7,357.605 144.533,356.939 144,354.5C 142.187,355.609 141.354,354.942 141.5,352.5C 141.243,347.743 138.743,345.076 134,344.5C 126.446,345.645 118.946,346.978 111.5,348.5C 107.273,347.799 102.94,346.966 98.5,346C 103.95,344.183 109.45,342.35 115,340.5C 122.361,340.245 129.527,339.079 136.5,337C 134.866,336.506 133.199,336.34 131.5,336.5C 133.948,335.527 136.615,335.194 139.5,335.5C 139.5,334.167 139.5,332.833 139.5,331.5C 140.451,330.081 140.784,328.415 140.5,326.5C 126.532,329.87 112.532,330.203 98.5,327.5C 96.2709,325.96 93.9375,324.46 91.5,323C 92.7839,322.316 93.9505,322.483 95,323.5C 95.2492,322.376 95.7492,321.376 96.5,320.5C 100.323,322.92 103.823,322.92 107,320.5C 109.427,321.567 109.927,320.9 108.5,318.5C 110.833,318.5 113.167,318.5 115.5,318.5C 119.63,303.942 124.464,289.609 130,275.5C 132.909,268.676 136.576,262.342 141,256.5C 154.973,244.095 171.14,235.762 189.5,231.5 Z"/></g>
<g><path style="opacity:1" fill="#d3d9db" d="M 294.5,360.5 C 294.327,363.179 293.327,365.513 291.5,367.5C 290.319,365.865 290.319,364.198 291.5,362.5C 253.506,361.5 215.506,361.167 177.5,361.5C 176.957,365.116 176.957,368.116 177.5,370.5C 173.975,368.122 171.975,364.789 171.5,360.5C 173.167,360.5 174.833,360.5 176.5,360.5C 174.209,340.367 171.376,320.367 168,300.5C 211.762,299.337 255.596,299.17 299.5,300C 300,300.5 300.5,301 301,301.5C 301.667,304.833 301.667,308.167 301,311.5C 297.401,327.762 294.234,344.095 291.5,360.5C 292.5,360.5 293.5,360.5 294.5,360.5 Z"/></g>
<g><path style="opacity:1" fill="#126ea1" d="M 179.5,253.5 C 177.701,257.788 175.701,261.955 173.5,266C 173.493,267.812 174.16,269.312 175.5,270.5C 177.841,272.671 180.341,274.671 183,276.5C 183.556,278.885 183.39,281.218 182.5,283.5C 169.5,280.263 159.667,284.263 153,295.5C 152.182,298.107 151.682,300.774 151.5,303.5C 154.446,321.344 157.446,339.177 160.5,357C 160.486,358.385 160.152,359.551 159.5,360.5C 154.901,360.862 150.901,359.529 147.5,356.5C 149.665,352.204 149.832,347.871 148,343.5C 146.437,342.275 145.27,340.775 144.5,339C 148.287,327.453 143.953,321.286 131.5,320.5C 133.866,310.705 136.699,301.038 140,291.5C 146.796,272.203 159.963,259.537 179.5,253.5 Z"/></g>
<g><path style="opacity:1" fill="#becfd8" d="M 78.5,325.5 C 82.0641,326.423 85.7307,326.756 89.5,326.5C 92.2869,327.477 95.2869,327.81 98.5,327.5C 112.532,330.203 126.532,329.87 140.5,326.5C 140.784,328.415 140.451,330.081 139.5,331.5C 139.38,330.414 138.713,329.747 137.5,329.5C 124.505,331.213 111.505,332.046 98.5,332C 97.1667,334 97.1667,336 98.5,338C 101.854,338.455 105.187,338.955 108.5,339.5C 102.557,341.405 96.5571,341.738 90.5,340.5C 91.5498,340.095 91.5498,339.429 90.5,338.5C 86.0065,336.588 81.3398,335.255 76.5,334.5C 76.9996,333.119 77.9996,332.453 79.5,332.5C 83.7873,333.375 88.1206,333.708 92.5,333.5C 92.5,332.5 92.5,331.5 92.5,330.5C 79.5299,328.803 66.5299,327.636 53.5,327C 52.1398,328.938 52.4732,330.604 54.5,332C 59.7377,333.643 65.071,334.976 70.5,336C 69.5842,336.278 68.9175,336.778 68.5,337.5C 62.4609,336.995 56.4609,336.162 50.5,335C 46.3218,327.587 48.4885,323.753 57,323.5C 64.1413,324.497 71.3079,325.163 78.5,325.5 Z"/></g>
<g><path style="opacity:1" fill="#05263e" d="M 279.5,231.5 C 291.364,234.596 302.697,239.096 313.5,245C 325.561,251.73 334.061,261.563 339,274.5C 344.435,289.648 349.935,304.648 355.5,319.5C 359.9,319.317 364.234,318.651 368.5,317.5C 370.611,317.486 372.445,318.152 374,319.5C 377.011,316.971 380.011,316.971 383,319.5C 388.104,317.54 392.271,318.707 395.5,323C 392.182,325.129 388.849,326.962 385.5,328.5C 384.833,328.5 384.5,328.833 384.5,329.5C 383.032,331.611 383.365,333.444 385.5,335C 383.108,338.091 381.274,337.591 380,333.5C 379.617,334.056 379.117,334.389 378.5,334.5C 376.811,333.069 374.811,332.236 372.5,332C 358.171,331.5 343.837,331.333 329.5,331.5C 329.368,334.57 329.701,337.57 330.5,340.5C 330.261,342.467 330.594,344.301 331.5,346C 344.072,346.061 356.572,346.895 369,348.5C 372.855,347.624 376.522,346.291 380,344.5C 382.984,345.264 385.484,346.764 387.5,349C 386.833,349.667 386.167,350.333 385.5,351C 386.935,350.689 388.268,350.855 389.5,351.5C 389.109,350.282 389.776,349.448 391.5,349C 391.167,348.667 390.833,348.333 390.5,348C 393.242,346.177 396.075,345.677 399,346.5C 398.737,347.951 398.904,349.284 399.5,350.5C 400.833,348.833 402.167,347.167 403.5,345.5C 402.183,345.687 400.85,345.02 399.5,343.5C 404.385,340.508 409.385,338.342 414.5,337C 413.868,333.73 413.201,330.563 412.5,327.5C 411.039,324.464 411.873,323.464 415,324.5C 417.024,327.581 417.691,330.914 417,334.5C 414.923,338.884 412.09,342.051 408.5,344C 412.027,344.145 415.36,344.978 418.5,346.5C 419.452,348.045 419.785,349.712 419.5,351.5C 421.288,351.215 422.955,351.548 424.5,352.5C 423.975,353.192 423.308,353.692 422.5,354C 423.641,354.741 423.641,355.575 422.5,356.5C 423.908,357.243 425.241,358.077 426.5,359C 426.167,359.333 425.833,359.667 425.5,360C 427.113,362.228 427.78,364.728 427.5,367.5C 423.921,367.766 423.587,369.099 426.5,371.5C 425.403,373.535 423.737,374.868 421.5,375.5C 420.209,376.527 420.209,377.527 421.5,378.5C 420.527,378.987 419.527,379.487 418.5,380C 387.833,380.667 357.167,380.667 326.5,380C 325.584,379.722 324.918,379.222 324.5,378.5C 323.475,375.759 321.309,373.426 318,371.5C 317.51,370.207 317.343,368.873 317.5,367.5C 312.833,367.5 308.167,367.5 303.5,367.5C 303.5,368.5 303.5,369.5 303.5,370.5C 299.642,370.86 297.642,373.027 297.5,377C 295.285,377.17 293.285,377.837 291.5,379C 252.829,379.833 214.162,379.667 175.5,378.5C 173.892,377.682 172.225,377.015 170.5,376.5C 169.571,375.311 169.238,373.978 169.5,372.5C 200.845,372.994 232.178,372.994 263.5,372.5C 272.125,372.544 280.625,373.211 289,374.5C 291.248,373.045 293.748,372.212 296.5,372C 295.619,371.292 294.953,370.458 294.5,369.5C 295.808,366.27 296.808,362.936 297.5,359.5C 299.097,358.263 300.263,356.596 301,354.5C 301.173,350.281 302.173,346.281 304,342.5C 304.915,343.328 305.581,344.328 306,345.5C 308.142,340.407 307.642,335.574 304.5,331C 306.824,327.901 308.324,324.401 309,320.5C 310.725,327.039 311.892,326.706 312.5,319.5C 310.897,319.688 309.563,319.188 308.5,318C 309.63,314.075 311.296,310.408 313.5,307C 312.542,305.853 312.875,304.853 314.5,304C 308.191,303.866 307.858,302.7 313.5,300.5C 313.854,298.459 313.854,296.626 313.5,295C 312.223,294.873 311.057,295.373 310,296.5C 309.733,294.741 308.9,293.075 307.5,291.5C 305.659,290.77 303.825,290.103 302,289.5C 294.956,289.552 287.789,289.885 280.5,290.5C 277.087,290.517 274.087,291.184 271.5,292.5C 237.51,293.464 203.51,293.631 169.5,293C 166.461,294.031 163.961,295.865 162,298.5C 162.333,306.851 163.166,315.184 164.5,323.5C 164.223,328.314 163.89,333.147 163.5,338C 164.801,341.405 165.801,344.905 166.5,348.5C 165.687,351.738 165.354,354.905 165.5,358C 167.632,358.918 168.299,360.251 167.5,362C 170.006,364.549 169.84,367.049 167,369.5C 159.453,368.142 151.953,366.809 144.5,365.5C 143.833,365.5 143.5,365.167 143.5,364.5C 143.5,363.5 143.5,362.5 143.5,361.5C 140.043,361.333 139.71,360.333 142.5,358.5C 146.471,360.871 150.638,362.871 155,364.5C 157.912,364.642 159.412,363.309 159.5,360.5C 160.152,359.551 160.486,358.385 160.5,357C 157.446,339.177 154.446,321.344 151.5,303.5C 151.682,300.774 152.182,298.107 153,295.5C 159.667,284.263 169.5,280.263 182.5,283.5C 194.167,283.5 205.833,283.5 217.5,283.5C 220.5,283.5 223.5,283.5 226.5,283.5C 232.167,283.5 237.833,283.5 243.5,283.5C 246.167,283.5 248.833,283.5 251.5,283.5C 252.167,283.5 252.833,283.5 253.5,283.5C 268.5,283.5 283.5,283.5 298.5,283.5C 301.271,283.421 303.937,283.921 306.5,285C 315.783,290.162 319.283,297.995 317,308.5C 313.928,325.872 310.762,343.206 307.5,360.5C 309.827,360.753 311.827,360.086 313.5,358.5C 314.913,352.597 318.08,347.93 323,344.5C 323.442,341.695 322.942,339.028 321.5,336.5C 322.087,331.141 324.754,327.308 329.5,325C 333.623,323.808 337.623,322.641 341.5,321.5C 342.649,321.209 343.316,320.376 343.5,319C 339.481,307.944 335.647,296.777 332,285.5C 328.818,276.293 323.984,268.127 317.5,261C 307.329,253.581 296.329,247.748 284.5,243.5C 283.469,242.751 282.302,242.085 281,241.5C 280.751,238.823 279.751,236.49 278,234.5C 277.275,232.843 277.775,231.843 279.5,231.5 Z"/></g>
<g><path style="opacity:1" fill="#f7f9f9" d="M 271.5,292.5 C 280.839,292.334 290.173,292.5 299.5,293C 307.074,295.534 309.574,300.701 307,308.5C 303.83,325.52 300.664,342.52 297.5,359.5C 296.609,360.11 295.609,360.443 294.5,360.5C 293.5,360.5 292.5,360.5 291.5,360.5C 294.234,344.095 297.401,327.762 301,311.5C 301.667,308.167 301.667,304.833 301,301.5C 300.5,301 300,300.5 299.5,300C 255.596,299.17 211.762,299.337 168,300.5C 171.376,320.367 174.209,340.367 176.5,360.5C 174.833,360.5 173.167,360.5 171.5,360.5C 169.527,347.973 167.193,335.64 164.5,323.5C 163.166,315.184 162.333,306.851 162,298.5C 163.961,295.865 166.461,294.031 169.5,293C 203.51,293.631 237.51,293.464 271.5,292.5 Z"/></g>
<g><path style="opacity:1" fill="#1374a4" d="M 227.5,321.5 C 228.15,321.804 228.817,322.137 229.5,322.5C 232.906,319.941 236.24,319.941 239.5,322.5C 240.94,321.048 242.606,320.048 244.5,319.5C 248.289,319.402 251.789,318.402 255,316.5C 256.107,316.585 257.107,316.919 258,317.5C 259.756,324.058 260.923,330.725 261.5,337.5C 261.5,338.833 261.5,340.167 261.5,341.5C 259.051,343.993 256.718,346.66 254.5,349.5C 250.066,348.875 246.733,346.709 244.5,343C 245.804,342.196 246.471,341.029 246.5,339.5C 245.844,337.547 245.511,335.547 245.5,333.5C 244.5,333.5 243.5,333.5 242.5,333.5C 242.511,331.453 242.844,329.453 243.5,327.5C 243.444,326.263 242.944,325.263 242,324.5C 241.667,328.167 241.333,331.833 241,335.5C 240.535,336.931 239.701,338.097 238.5,339C 238.833,339.333 239.167,339.667 239.5,340C 236.167,340.667 232.833,340.667 229.5,340C 230.059,339.275 230.392,338.442 230.5,337.5C 229.338,332.866 228.338,328.199 227.5,323.5C 226.056,325.608 225.39,327.941 225.5,330.5C 221.888,329.489 218.221,329.322 214.5,330C 213.62,331.356 213.286,332.856 213.5,334.5C 216.807,333.949 220.14,333.616 223.5,333.5C 221.817,337.258 221.151,341.258 221.5,345.5C 220.07,345.421 218.736,345.754 217.5,346.5C 216.719,345.271 216.219,343.938 216,342.5C 215.667,342.833 215.333,343.167 215,343.5C 213.417,342.029 211.583,341.029 209.5,340.5C 209.681,334.573 209.848,328.573 210,322.5C 210.955,316.464 214.122,314.964 219.5,318C 219.167,318.333 218.833,318.667 218.5,319C 221.513,319.909 224.513,320.742 227.5,321.5 Z"/></g>
<g><path style="opacity:1" fill="#c3dde8" d="M 262.5,324.5 C 261.26,321.976 260.093,319.309 259,316.5C 257.087,314.813 254.92,314.313 252.5,315C 249.609,316.274 246.942,317.774 244.5,319.5C 242.606,320.048 240.94,321.048 239.5,322.5C 236.24,319.941 232.906,319.941 229.5,322.5C 228.817,322.137 228.15,321.804 227.5,321.5C 223.638,318.401 219.305,316.067 214.5,314.5C 213.151,314.846 211.817,315.179 210.5,315.5C 211.334,314.252 212.667,313.585 214.5,313.5C 223.608,315.426 232.608,316.759 241.5,317.5C 244.32,316.618 246.986,315.452 249.5,314C 258.411,311.739 262.744,315.239 262.5,324.5 Z"/></g>
<g><path style="opacity:1" fill="#317894" d="M 262.5,324.5 C 262.818,329.032 262.485,333.366 261.5,337.5C 260.923,330.725 259.756,324.058 258,317.5C 257.107,316.919 256.107,316.585 255,316.5C 251.789,318.402 248.289,319.402 244.5,319.5C 246.942,317.774 249.609,316.274 252.5,315C 254.92,314.313 257.087,314.813 259,316.5C 260.093,319.309 261.26,321.976 262.5,324.5 Z"/></g>
<g><path style="opacity:1" fill="#f4f9fa" d="M 90.5,340.5 C 83.0619,340.154 75.7285,339.154 68.5,337.5C 68.9175,336.778 69.5842,336.278 70.5,336C 65.071,334.976 59.7377,333.643 54.5,332C 52.4732,330.604 52.1398,328.938 53.5,327C 66.5299,327.636 79.5299,328.803 92.5,330.5C 92.5,331.5 92.5,332.5 92.5,333.5C 88.1206,333.708 83.7873,333.375 79.5,332.5C 77.9996,332.453 76.9996,333.119 76.5,334.5C 81.3398,335.255 86.0065,336.588 90.5,338.5C 91.5498,339.429 91.5498,340.095 90.5,340.5 Z"/></g>
<g><path style="opacity:1" fill="#6adbd6" d="M 409.5,325.5 C 409.53,326.497 409.03,327.164 408,327.5C 401.441,329.409 394.941,331.409 388.5,333.5C 387.527,331.861 386.194,330.527 384.5,329.5C 384.5,328.833 384.833,328.5 385.5,328.5C 391.801,326.706 398.135,325.04 404.5,323.5C 406.557,323.436 408.223,324.102 409.5,325.5 Z"/></g>
<g><path style="opacity:1" fill="#339ec1" d="M 225.5,330.5 C 226.404,331.209 226.737,332.209 226.5,333.5C 225.5,333.5 224.5,333.5 223.5,333.5C 220.14,333.616 216.807,333.949 213.5,334.5C 213.286,332.856 213.62,331.356 214.5,330C 218.221,329.322 221.888,329.489 225.5,330.5 Z"/></g>
<g><path style="opacity:1" fill="#f4f8f9" d="M 139.5,331.5 C 139.5,332.833 139.5,334.167 139.5,335.5C 136.615,335.194 133.948,335.527 131.5,336.5C 123.847,337.664 116.18,338.664 108.5,339.5C 105.187,338.955 101.854,338.455 98.5,338C 97.1667,336 97.1667,334 98.5,332C 111.505,332.046 124.505,331.213 137.5,329.5C 138.713,329.747 139.38,330.414 139.5,331.5 Z"/></g>
<g><path style="opacity:1" fill="#bbcbd5" d="M 378.5,334.5 C 380.084,337.906 379.75,341.072 377.5,344C 363.167,344.667 348.833,344.667 334.5,344C 333.619,343.292 332.953,342.458 332.5,341.5C 331.833,341.167 331.167,340.833 330.5,340.5C 329.701,337.57 329.368,334.57 329.5,331.5C 343.837,331.333 358.171,331.5 372.5,332C 374.811,332.236 376.811,333.069 378.5,334.5 Z"/></g>
<g><path style="opacity:1" fill="#2da49d" d="M 409.5,325.5 C 410.5,326.167 411.5,326.833 412.5,327.5C 412.795,331.077 411.795,334.243 409.5,337C 402.076,340.696 394.409,343.362 386.5,345C 389.42,341.565 390.087,337.731 388.5,333.5C 394.941,331.409 401.441,329.409 408,327.5C 409.03,327.164 409.53,326.497 409.5,325.5 Z"/></g>
<g><path style="opacity:1" fill="#fbfdfd" d="M 332.5,341.5 C 332.104,338.956 332.771,336.789 334.5,335C 348.167,334.333 361.833,334.333 375.5,335C 377.731,337.197 377.731,339.53 375.5,342C 361.122,342.799 346.789,342.633 332.5,341.5 Z"/></g>
<g><path style="opacity:1" fill="#266f94" d="M 227.5,321.5 C 224.513,320.742 221.513,319.909 218.5,319C 218.833,318.667 219.167,318.333 219.5,318C 214.122,314.964 210.955,316.464 210,322.5C 209.848,328.573 209.681,334.573 209.5,340.5C 209.779,343.118 210.446,345.618 211.5,348C 215.38,348.516 219.38,348.35 223.5,347.5C 219.918,350.298 215.918,351.298 211.5,350.5C 205.435,338.987 205.102,327.321 210.5,315.5C 211.817,315.179 213.151,314.846 214.5,314.5C 219.305,316.067 223.638,318.401 227.5,321.5 Z"/></g>
<g><path style="opacity:1" fill="#0e2a3c" d="M 297.5,359.5 C 300.664,342.52 303.83,325.52 307,308.5C 309.574,300.701 307.074,295.534 299.5,293C 290.173,292.5 280.839,292.334 271.5,292.5C 274.087,291.184 277.087,290.517 280.5,290.5C 287.789,289.885 294.956,289.552 302,289.5C 303.825,290.103 305.659,290.77 307.5,291.5C 308.9,293.075 309.733,294.741 310,296.5C 311.057,295.373 312.223,294.873 313.5,295C 313.854,296.626 313.854,298.459 313.5,300.5C 307.858,302.7 308.191,303.866 314.5,304C 312.875,304.853 312.542,305.853 313.5,307C 311.296,310.408 309.63,314.075 308.5,318C 309.563,319.188 310.897,319.688 312.5,319.5C 311.892,326.706 310.725,327.039 309,320.5C 308.324,324.401 306.824,327.901 304.5,331C 307.642,335.574 308.142,340.407 306,345.5C 305.581,344.328 304.915,343.328 304,342.5C 302.173,346.281 301.173,350.281 301,354.5C 300.263,356.596 299.097,358.263 297.5,359.5 Z"/></g>
<g><path style="opacity:1" fill="#0c263a" d="M 98.5,316.5 C 101.833,317.167 105.167,317.833 108.5,318.5C 109.927,320.9 109.427,321.567 107,320.5C 103.823,322.92 100.323,322.92 96.5,320.5C 95.7492,321.376 95.2492,322.376 95,323.5C 93.9505,322.483 92.7839,322.316 91.5,323C 93.9375,324.46 96.2709,325.96 98.5,327.5C 95.2869,327.81 92.2869,327.477 89.5,326.5C 91.6323,324.606 90.9657,323.106 87.5,322C 88.8333,321.333 88.8333,320.667 87.5,320C 88.1667,319.667 88.8333,319.333 89.5,319C 88.7636,315.514 87.2636,315.68 85,319.5C 83.0012,319.454 81.1679,318.454 79.5,316.5C 71.1819,317.323 62.8486,317.989 54.5,318.5C 54.3601,320.124 55.0267,321.29 56.5,322C 62.8291,321.59 69.1624,322.09 75.5,323.5C 77.0296,323.64 78.0296,324.307 78.5,325.5C 71.3079,325.163 64.1413,324.497 57,323.5C 48.4885,323.753 46.3218,327.587 50.5,335C 56.4609,336.162 62.4609,336.995 68.5,337.5C 75.7285,339.154 83.0619,340.154 90.5,340.5C 96.5571,341.738 102.557,341.405 108.5,339.5C 116.18,338.664 123.847,337.664 131.5,336.5C 133.199,336.34 134.866,336.506 136.5,337C 129.527,339.079 122.361,340.245 115,340.5C 109.45,342.35 103.95,344.183 98.5,346C 102.94,346.966 107.273,347.799 111.5,348.5C 105.777,348.644 100.11,349.311 94.5,350.5C 80.4533,348.351 66.4533,346.018 52.5,343.5C 42.0709,340.581 38.2375,333.914 41,323.5C 43.3125,319.42 46.8125,316.92 51.5,316C 67.2039,313.972 82.8706,314.139 98.5,316.5 Z"/></g>
<g><path style="opacity:1" fill="#03233e" d="M 89.5,326.5 C 85.7307,326.756 82.0641,326.423 78.5,325.5C 78.0296,324.307 77.0296,323.64 75.5,323.5C 69.1624,322.09 62.8291,321.59 56.5,322C 55.0267,321.29 54.3601,320.124 54.5,318.5C 62.8486,317.989 71.1819,317.323 79.5,316.5C 81.1679,318.454 83.0012,319.454 85,319.5C 87.2636,315.68 88.7636,315.514 89.5,319C 88.8333,319.333 88.1667,319.667 87.5,320C 88.8333,320.667 88.8333,321.333 87.5,322C 90.9657,323.106 91.6323,324.606 89.5,326.5 Z"/></g>
<g><path style="opacity:1" fill="#082b3c" d="M 412.5,327.5 C 413.201,330.563 413.868,333.73 414.5,337C 409.385,338.342 404.385,340.508 399.5,343.5C 400.85,345.02 402.183,345.687 403.5,345.5C 402.167,347.167 400.833,348.833 399.5,350.5C 398.904,349.284 398.737,347.951 399,346.5C 396.075,345.677 393.242,346.177 390.5,348C 390.833,348.333 391.167,348.667 391.5,349C 389.776,349.448 389.109,350.282 389.5,351.5C 388.268,350.855 386.935,350.689 385.5,351C 386.167,350.333 386.833,349.667 387.5,349C 385.484,346.764 382.984,345.264 380,344.5C 376.522,346.291 372.855,347.624 369,348.5C 356.572,346.895 344.072,346.061 331.5,346C 330.594,344.301 330.261,342.467 330.5,340.5C 331.167,340.833 331.833,341.167 332.5,341.5C 332.953,342.458 333.619,343.292 334.5,344C 348.833,344.667 363.167,344.667 377.5,344C 379.75,341.072 380.084,337.906 378.5,334.5C 379.117,334.389 379.617,334.056 380,333.5C 381.274,337.591 383.108,338.091 385.5,335C 383.365,333.444 383.032,331.611 384.5,329.5C 386.194,330.527 387.527,331.861 388.5,333.5C 390.087,337.731 389.42,341.565 386.5,345C 394.409,343.362 402.076,340.696 409.5,337C 411.795,334.243 412.795,331.077 412.5,327.5 Z"/></g>
<g><path style="opacity:1" fill="#106490" d="M 261.5,341.5 C 259.271,352.257 253.604,354.424 244.5,348C 242.167,346.167 239.833,344.333 237.5,342.5C 235.5,343.833 233.5,343.833 231.5,342.5C 228.798,344.22 226.132,345.887 223.5,347.5C 219.38,348.35 215.38,348.516 211.5,348C 210.446,345.618 209.779,343.118 209.5,340.5C 211.583,341.029 213.417,342.029 215,343.5C 215.333,343.167 215.667,342.833 216,342.5C 216.219,343.938 216.719,345.271 217.5,346.5C 218.736,345.754 220.07,345.421 221.5,345.5C 221.151,341.258 221.817,337.258 223.5,333.5C 224.5,333.5 225.5,333.5 226.5,333.5C 226.737,332.209 226.404,331.209 225.5,330.5C 225.39,327.941 226.056,325.608 227.5,323.5C 228.338,328.199 229.338,332.866 230.5,337.5C 230.392,338.442 230.059,339.275 229.5,340C 232.833,340.667 236.167,340.667 239.5,340C 239.167,339.667 238.833,339.333 238.5,339C 239.701,338.097 240.535,336.931 241,335.5C 241.333,331.833 241.667,328.167 242,324.5C 242.944,325.263 243.444,326.263 243.5,327.5C 242.844,329.453 242.511,331.453 242.5,333.5C 243.5,333.5 244.5,333.5 245.5,333.5C 245.511,335.547 245.844,337.547 246.5,339.5C 246.471,341.029 245.804,342.196 244.5,343C 246.733,346.709 250.066,348.875 254.5,349.5C 256.718,346.66 259.051,343.993 261.5,341.5 Z"/></g>
<g><path style="opacity:1" fill="#f3f8f9" d="M 133.5,356.5 C 127.698,358.425 121.698,359.425 115.5,359.5C 111.651,359.597 107.817,359.931 104,360.5C 97.7325,360.596 96.2325,358.096 99.5,353C 112.135,350.372 124.801,348.872 137.5,348.5C 139.252,352.74 137.919,355.407 133.5,356.5 Z"/></g>
<g><path style="opacity:1" fill="#f5fafb" d="M 68.5,357.5 C 65.0968,357.149 61.7635,356.482 58.5,355.5C 56.2561,350.925 57.5894,348.591 62.5,348.5C 70.8731,349.784 79.2064,351.284 87.5,353C 88.9733,353.71 89.6399,354.876 89.5,356.5C 84.9698,356.597 80.4698,356.264 76,355.5C 73.5103,356.336 71.0103,357.002 68.5,357.5 Z"/></g>
<g><path style="opacity:1" fill="#f8fbfb" d="M 325.5,367.5 C 325.5,367.167 325.5,366.833 325.5,366.5C 340.167,366.5 354.833,366.5 369.5,366.5C 369.5,365.167 369.5,363.833 369.5,362.5C 355.855,361.615 342.189,361.282 328.5,361.5C 328.33,360.178 328.663,359.011 329.5,358C 353.473,356.429 377.473,356.096 401.5,357C 407.825,356.657 410.659,359.49 410,365.5C 408.066,368.688 405.232,370.188 401.5,370C 377.833,370.667 354.167,370.667 330.5,370C 329.09,368.628 327.423,367.795 325.5,367.5 Z"/></g>
<g><path style="opacity:1" fill="#122c3b" d="M 368.5,315.5 C 382.504,315.333 396.504,315.5 410.5,316C 421.281,320.407 424.114,327.907 419,338.5C 417.649,340.019 416.149,341.352 414.5,342.5C 428.9,346.654 433.9,355.987 429.5,370.5C 427.719,374.07 425.052,376.737 421.5,378.5C 420.209,377.527 420.209,376.527 421.5,375.5C 423.737,374.868 425.403,373.535 426.5,371.5C 423.587,369.099 423.921,367.766 427.5,367.5C 427.78,364.728 427.113,362.228 425.5,360C 425.833,359.667 426.167,359.333 426.5,359C 425.241,358.077 423.908,357.243 422.5,356.5C 423.641,355.575 423.641,354.741 422.5,354C 423.308,353.692 423.975,353.192 424.5,352.5C 422.955,351.548 421.288,351.215 419.5,351.5C 419.785,349.712 419.452,348.045 418.5,346.5C 415.36,344.978 412.027,344.145 408.5,344C 412.09,342.051 414.923,338.884 417,334.5C 417.691,330.914 417.024,327.581 415,324.5C 411.873,323.464 411.039,324.464 412.5,327.5C 411.5,326.833 410.5,326.167 409.5,325.5C 408.223,324.102 406.557,323.436 404.5,323.5C 398.135,325.04 391.801,326.706 385.5,328.5C 388.849,326.962 392.182,325.129 395.5,323C 392.271,318.707 388.104,317.54 383,319.5C 380.011,316.971 377.011,316.971 374,319.5C 372.445,318.152 370.611,317.486 368.5,317.5C 364.234,318.651 359.9,319.317 355.5,319.5C 359.49,317.413 363.823,316.08 368.5,315.5 Z"/></g>
<g><path style="opacity:1" fill="#b9c9d3" d="M 52.5,343.5 C 66.4533,346.018 80.4533,348.351 94.5,350.5C 100.11,349.311 105.777,348.644 111.5,348.5C 118.946,346.978 126.446,345.645 134,344.5C 138.743,345.076 141.243,347.743 141.5,352.5C 140.751,353.531 140.085,354.698 139.5,356C 137.527,356.495 135.527,356.662 133.5,356.5C 137.919,355.407 139.252,352.74 137.5,348.5C 124.801,348.872 112.135,350.372 99.5,353C 96.2325,358.096 97.7325,360.596 104,360.5C 107.817,359.931 111.651,359.597 115.5,359.5C 108.54,361.482 101.374,363.148 94,364.5C 85.4616,361.835 76.9616,359.501 68.5,357.5C 71.0103,357.002 73.5103,356.336 76,355.5C 80.4698,356.264 84.9698,356.597 89.5,356.5C 89.6399,354.876 88.9733,353.71 87.5,353C 79.2064,351.284 70.8731,349.784 62.5,348.5C 57.5894,348.591 56.2561,350.925 58.5,355.5C 57.8333,355.5 57.1667,355.5 56.5,355.5C 54.9087,354.781 53.4087,353.781 52,352.5C 51.3658,349.445 51.5325,346.445 52.5,343.5 Z"/></g>
<g><path style="opacity:1" fill="#c2cfd7" d="M 325.5,367.5 C 327.423,367.795 329.09,368.628 330.5,370C 354.167,370.667 377.833,370.667 401.5,370C 405.232,370.188 408.066,368.688 410,365.5C 410.659,359.49 407.825,356.657 401.5,357C 377.473,356.096 353.473,356.429 329.5,358C 328.663,359.011 328.33,360.178 328.5,361.5C 342.189,361.282 355.855,361.615 369.5,362.5C 369.5,363.833 369.5,365.167 369.5,366.5C 354.833,366.5 340.167,366.5 325.5,366.5C 322.589,361.386 323.589,356.886 328.5,353C 331.634,352.21 334.634,352.543 337.5,354C 347.833,354.167 358.167,354.333 368.5,354.5C 383.601,354.516 398.601,354.016 413.5,353C 420.678,356.569 422.178,361.735 418,368.5C 416.829,369.893 415.329,370.727 413.5,371C 385.5,371.667 357.5,371.667 329.5,371C 327.676,370.34 326.343,369.173 325.5,367.5 Z"/></g>
<g><path style="opacity:1" fill="#0b2536" d="M 141.5,352.5 C 141.354,354.942 142.187,355.609 144,354.5C 144.533,356.939 145.7,357.605 147.5,356.5C 150.901,359.529 154.901,360.862 159.5,360.5C 159.412,363.309 157.912,364.642 155,364.5C 150.638,362.871 146.471,360.871 142.5,358.5C 139.71,360.333 140.043,361.333 143.5,361.5C 143.5,362.5 143.5,363.5 143.5,364.5C 142.406,363.418 141.073,362.752 139.5,362.5C 125.926,365.762 112.26,368.596 98.5,371C 94.141,371.534 89.8076,371.368 85.5,370.5C 76.7249,367.468 67.7249,364.801 58.5,362.5C 56.7162,362.107 55.0495,361.441 53.5,360.5C 52.9033,360.265 52.5699,359.765 52.5,359C 53.6449,357.598 54.9783,356.431 56.5,355.5C 57.1667,355.5 57.8333,355.5 58.5,355.5C 61.7635,356.482 65.0968,357.149 68.5,357.5C 76.9616,359.501 85.4616,361.835 94,364.5C 101.374,363.148 108.54,361.482 115.5,359.5C 121.698,359.425 127.698,358.425 133.5,356.5C 135.527,356.662 137.527,356.495 139.5,356C 140.085,354.698 140.751,353.531 141.5,352.5 Z"/></g>
<g><path style="opacity:1" fill="#a6b0b7" d="M 297.5,359.5 C 296.808,362.936 295.808,366.27 294.5,369.5C 293.527,369.987 292.527,370.487 291.5,371C 253.331,371.831 215.331,371.664 177.5,370.5C 176.957,368.116 176.957,365.116 177.5,361.5C 215.506,361.167 253.506,361.5 291.5,362.5C 290.319,364.198 290.319,365.865 291.5,367.5C 293.327,365.513 294.327,363.179 294.5,360.5C 295.609,360.443 296.609,360.11 297.5,359.5 Z"/></g>
<g><path style="opacity:1" fill="#c4a37f" d="M 53.5,360.5 C 55.0495,361.441 56.7162,362.107 58.5,362.5C 58.9156,364.752 60.249,366.252 62.5,367C 70.8225,369.329 79.1559,371.662 87.5,374C 98.5265,374.124 109.193,372.624 119.5,369.5C 125.698,368.409 131.865,367.076 138,365.5C 145.518,369.94 153.684,372.106 162.5,372C 163.971,373.583 164.971,375.417 165.5,377.5C 120.664,377.832 75.9969,377.499 31.5,376.5C 37.6841,371.698 44.3507,367.532 51.5,364C 52.8228,363.184 53.4894,362.017 53.5,360.5 Z"/></g>
<g><path style="opacity:1" fill="#9f8e7b" d="M 143.5,364.5 C 143.5,365.167 143.833,365.5 144.5,365.5C 149.828,369.501 155.828,370.834 162.5,369.5C 164.509,372.196 166.509,374.863 168.5,377.5C 167.5,377.5 166.5,377.5 165.5,377.5C 164.971,375.417 163.971,373.583 162.5,372C 153.684,372.106 145.518,369.94 138,365.5C 131.865,367.076 125.698,368.409 119.5,369.5C 110.998,370.433 102.498,371.433 94,372.5C 91.5,372.333 89,372.167 86.5,372C 85.944,371.617 85.6107,371.117 85.5,370.5C 89.8076,371.368 94.141,371.534 98.5,371C 112.26,368.596 125.926,365.762 139.5,362.5C 141.073,362.752 142.406,363.418 143.5,364.5 Z"/></g>
<g><path style="opacity:1" fill="#172833" d="M 164.5,323.5 C 167.193,335.64 169.527,347.973 171.5,360.5C 171.975,364.789 173.975,368.122 177.5,370.5C 215.331,371.664 253.331,371.831 291.5,371C 292.527,370.487 293.527,369.987 294.5,369.5C 294.953,370.458 295.619,371.292 296.5,372C 293.748,372.212 291.248,373.045 289,374.5C 280.625,373.211 272.125,372.544 263.5,372.5C 232.178,372.994 200.845,372.994 169.5,372.5C 169.238,373.978 169.571,375.311 170.5,376.5C 172.225,377.015 173.892,377.682 175.5,378.5C 214.162,379.667 252.829,379.833 291.5,379C 293.285,377.837 295.285,377.17 297.5,377C 297.642,373.027 299.642,370.86 303.5,370.5C 303.5,369.5 303.5,368.5 303.5,367.5C 308.167,367.5 312.833,367.5 317.5,367.5C 317.343,368.873 317.51,370.207 318,371.5C 321.309,373.426 323.475,375.759 324.5,378.5C 322.716,378.107 321.05,377.441 319.5,376.5C 317.887,373.714 316.054,371.047 314,368.5C 311.26,369.282 308.426,369.782 305.5,370C 304.058,373.268 302.058,376.101 299.5,378.5C 296.946,379.606 294.279,380.439 291.5,381C 252.835,381.5 214.168,381.667 175.5,381.5C 173.337,379.917 171.004,378.584 168.5,377.5C 166.509,374.863 164.509,372.196 162.5,369.5C 155.828,370.834 149.828,369.501 144.5,365.5C 151.953,366.809 159.453,368.142 167,369.5C 169.84,367.049 170.006,364.549 167.5,362C 168.299,360.251 167.632,358.918 165.5,358C 165.354,354.905 165.687,351.738 166.5,348.5C 165.801,344.905 164.801,341.405 163.5,338C 163.89,333.147 164.223,328.314 164.5,323.5 Z"/></g>
<g><path style="opacity:1" fill="#a68a6b" d="M 58.5,362.5 C 67.7249,364.801 76.7249,367.468 85.5,370.5C 85.6107,371.117 85.944,371.617 86.5,372C 89,372.167 91.5,372.333 94,372.5C 102.498,371.433 110.998,370.433 119.5,369.5C 109.193,372.624 98.5265,374.124 87.5,374C 79.1559,371.662 70.8225,369.329 62.5,367C 60.249,366.252 58.9156,364.752 58.5,362.5 Z"/></g>
<g><path style="opacity:1" fill="#baa082" d="M 319.5,376.5 C 312.991,377.329 306.324,377.995 299.5,378.5C 302.058,376.101 304.058,373.268 305.5,370C 308.426,369.782 311.26,369.282 314,368.5C 316.054,371.047 317.887,373.714 319.5,376.5 Z"/></g>
<g><path style="opacity:1" fill="#a17c59" d="M 429.5,370.5 C 434.535,374.035 439.702,377.368 445,380.5C 445.495,382.473 445.662,384.473 445.5,386.5C 305.374,386.504 165.041,386.504 24.5,386.5C 23.1905,380.968 25.5238,377.635 31.5,376.5C 75.9969,377.499 120.664,377.832 165.5,377.5C 166.5,377.5 167.5,377.5 168.5,377.5C 171.004,378.584 173.337,379.917 175.5,381.5C 215.998,382.665 256.665,382.831 297.5,382C 298.305,380.887 298.972,379.721 299.5,378.5C 306.324,377.995 312.991,377.329 319.5,376.5C 321.05,377.441 322.716,378.107 324.5,378.5C 324.918,379.222 325.584,379.722 326.5,380C 357.167,380.667 387.833,380.667 418.5,380C 419.527,379.487 420.527,378.987 421.5,378.5C 425.052,376.737 427.719,374.07 429.5,370.5 Z"/></g>
<g><path style="opacity:1" fill="#97846e" d="M 299.5,378.5 C 298.972,379.721 298.305,380.887 297.5,382C 256.665,382.831 215.998,382.665 175.5,381.5C 214.168,381.667 252.835,381.5 291.5,381C 294.279,380.439 296.946,379.606 299.5,378.5 Z"/></g>
<g><path style="opacity:1" fill="#cba985" d="M 24.5,386.5 C 165.041,386.504 305.374,386.504 445.5,386.5C 445.829,389.228 445.163,391.562 443.5,393.5C 442.5,394.167 441.5,394.833 440.5,395.5C 304.166,395.667 167.833,395.5 31.5,395C 29.9751,393.991 28.3084,393.491 26.5,393.5C 26.7148,391.821 26.0481,390.821 24.5,390.5C 24.5,389.167 24.5,387.833 24.5,386.5 Z"/></g>
<g><path style="opacity:1" fill="#ccb49d" d="M 24.5,390.5 C 26.0481,390.821 26.7148,391.821 26.5,393.5C 28.3084,393.491 29.9751,393.991 31.5,395C 167.833,395.5 304.166,395.667 440.5,395.5C 304.334,396.5 168.001,396.833 31.5,396.5C 27.3355,396.59 25.0021,394.59 24.5,390.5 Z"/></g>
<g><path style="opacity:1" fill="#fef7ea" d="M 443.5,393.5 C 443.36,397.29 441.694,398.624 438.5,397.5C 436.971,397.529 435.804,398.196 435,399.5C 434.5,399 434,398.5 433.5,398C 299.333,397.833 165.333,397.333 31.5,396.5C 168.001,396.833 304.334,396.5 440.5,395.5C 441.5,394.833 442.5,394.167 443.5,393.5 Z"/></g>
<g><path style="opacity:1" fill="#112a3d" d="M 298.5,406.5 C 301.119,406.232 303.619,406.565 306,407.5C 306.333,413.5 306.667,419.5 307,425.5C 307.575,428.797 309.575,430.464 313,430.5C 315.305,430.516 316.972,429.516 318,427.5C 318.5,420.842 318.666,414.175 318.5,407.5C 321.5,407.5 324.5,407.5 327.5,407.5C 327.901,415.585 327.401,423.585 326,431.5C 319.833,438.911 312.333,440.411 303.5,436C 301.383,434.269 299.883,432.102 299,429.5C 298.5,421.841 298.334,414.174 298.5,406.5 Z"/></g>
<g><path style="opacity:1" fill="#0f2a3b" d="M 273.5,406.5 C 289.1,405.928 295.6,413.261 293,428.5C 288.266,437.529 280.932,440.529 271,437.5C 262.4,432.37 259.734,425.037 263,415.5C 265.489,411.168 268.989,408.168 273.5,406.5 Z"/></g>
<g><path style="opacity:1" fill="#142b3d" d="M 374.5,406.5 C 379.742,406.023 384.742,406.856 389.5,409C 390.357,409.689 391.023,410.522 391.5,411.5C 389.761,415.508 387.094,416.675 383.5,415C 373.989,414.188 370.823,418.354 374,427.5C 378.227,431.309 382.56,431.309 387,427.5C 389.308,428.641 391.141,430.308 392.5,432.5C 386.091,438.864 378.758,440.031 370.5,436C 363.777,430.495 361.943,423.661 365,415.5C 367.406,411.592 370.572,408.592 374.5,406.5 Z"/></g>
<g><path style="opacity:1" fill="#192e3c" d="M 129.5,405.5 C 133.295,404.959 135.295,406.625 135.5,410.5C 134.003,414.82 131.503,418.487 128,421.5C 127.383,418.965 127.883,416.632 129.5,414.5C 124.5,411.732 124.5,408.732 129.5,405.5 Z"/></g>
<g><path style="opacity:1" fill="#08263a" d="M 191.5,407.5 C 199.714,407.899 203.214,412.232 202,420.5C 201.388,423.115 199.888,424.781 197.5,425.5C 196.778,425.918 196.278,426.584 196,427.5C 192.917,427.553 189.751,427.22 186.5,426.5C 187.833,425.5 187.833,424.5 186.5,423.5C 188.631,422.831 190.631,422.165 192.5,421.5C 195.351,418.717 195.017,416.384 191.5,414.5C 189.708,413.691 187.708,413.191 185.5,413C 186.888,412.111 186.722,411.611 185,411.5C 184.228,411.645 183.561,411.978 183,412.5C 183.347,416.895 183.847,421.061 184.5,425C 183.978,427.97 182.478,428.804 180,427.5C 179.693,422.643 179.193,417.81 178.5,413C 178.645,411.774 178.978,410.607 179.5,409.5C 183.393,408.185 187.393,407.518 191.5,407.5 Z"/></g>
<g><path style="opacity:1" fill="#eaeff0" d="M 191.5,414.5 C 195.017,416.384 195.351,418.717 192.5,421.5C 190.167,421.5 187.833,421.5 185.5,421.5C 185.007,419.194 184.674,416.861 184.5,414.5C 186.833,414.5 189.167,414.5 191.5,414.5 Z"/></g>
<g><path style="opacity:1" fill="#12293b" d="M 241.5,406.5 C 246.695,405.944 251.528,406.944 256,409.5C 256.63,411.903 255.797,413.737 253.5,415C 249.832,414.422 246.166,414.589 242.5,415.5C 247.71,417.308 252.543,419.975 257,423.5C 258.565,435.923 253.065,440.756 240.5,438C 238.101,437.269 235.935,436.102 234,434.5C 233.583,431.716 234.75,429.716 237.5,428.5C 239.843,429.923 242.343,430.923 245,431.5C 247.034,431.568 248.534,430.734 249.5,429C 246.142,426.892 242.475,425.226 238.5,424C 234.87,420.95 233.703,417.117 235,412.5C 236.494,409.686 238.66,407.686 241.5,406.5 Z"/></g>
<g><path style="opacity:1" fill="#f7f9fa" d="M 274.5,414.5 C 282.658,413.823 286.158,417.49 285,425.5C 280.829,431.729 276.163,432.062 271,426.5C 269.593,421.556 270.759,417.556 274.5,414.5 Z"/></g>
<g><path style="opacity:1" fill="#56656a" d="M 405.5,418.5 C 409.5,418.5 413.5,418.5 417.5,418.5C 417.802,421.059 417.468,423.393 416.5,425.5C 416.5,423.5 416.5,421.5 416.5,419.5C 412.629,419.815 408.962,419.482 405.5,418.5 Z"/></g>
<g><path style="opacity:1" fill="#132a3b" d="M 145.5,406.5 C 151.305,405.524 156.305,407.024 160.5,411C 158.957,412.714 157.29,414.214 155.5,415.5C 152.478,414.351 149.478,414.351 146.5,415.5C 151.107,417.461 155.607,419.795 160,422.5C 163.775,432.617 160.275,437.95 149.5,438.5C 144.272,438.704 139.939,436.871 136.5,433C 138.017,431.315 139.684,429.815 141.5,428.5C 144.946,430.883 148.613,431.55 152.5,430.5C 153.386,429.675 153.719,428.675 153.5,427.5C 147.238,427.288 142.405,424.622 139,419.5C 137.476,413.215 139.642,408.882 145.5,406.5 Z"/></g>
<g><path style="opacity:1" fill="#1d3240" d="M 216.5,415.5 C 216.5,416.5 216.5,417.5 216.5,418.5C 220.5,418.5 224.5,418.5 228.5,418.5C 228.5,420.833 228.5,423.167 228.5,425.5C 224.5,425.5 220.5,425.5 216.5,425.5C 216.5,427.167 216.5,428.833 216.5,430.5C 220.846,430.334 225.179,430.501 229.5,431C 230.833,433.333 230.833,435.667 229.5,438C 222.321,438.821 215.321,438.655 208.5,437.5C 214.5,437.5 220.5,437.5 226.5,437.5C 226.833,435.5 227.167,433.5 227.5,431.5C 222.833,431.5 218.167,431.5 213.5,431.5C 213.411,427.7 214.078,424.034 215.5,420.5C 215.244,419.311 214.911,418.144 214.5,417C 214.836,415.97 215.503,415.47 216.5,415.5 Z"/></g>
<g><path style="opacity:1" fill="#10283d" d="M 216.5,415.5 C 215.503,415.47 214.836,415.97 214.5,417C 214.911,418.144 215.244,419.311 215.5,420.5C 214.078,424.034 213.411,427.7 213.5,431.5C 218.167,431.5 222.833,431.5 227.5,431.5C 227.167,433.5 226.833,435.5 226.5,437.5C 220.5,437.5 214.5,437.5 208.5,437.5C 208.334,427.494 208.5,417.494 209,407.5C 215.418,406.357 221.918,406.19 228.5,407C 229.435,409.381 229.768,411.881 229.5,414.5C 224.968,414.182 220.634,414.515 216.5,415.5 Z"/></g>
<g><path style="opacity:1" fill="#132c40" d="M 74.5,406.5 C 80.8421,406.334 87.1754,406.5 93.5,407C 95.291,409.106 95.9577,411.606 95.5,414.5C 91.1667,414.5 86.8333,414.5 82.5,414.5C 82.5,415.833 82.5,417.167 82.5,418.5C 86.5,418.5 90.5,418.5 94.5,418.5C 94.5,420.833 94.5,423.167 94.5,425.5C 90.5,425.5 86.5,425.5 82.5,425.5C 82.5,427.167 82.5,428.833 82.5,430.5C 87.0986,430.2 91.5986,430.533 96,431.5C 96.6869,433.568 96.5202,435.568 95.5,437.5C 88.2759,438.812 81.1093,438.812 74,437.5C 73.1925,427.09 73.3592,416.757 74.5,406.5 Z"/></g>
<g><path style="opacity:1" fill="#142d3c" d="M 98.5,406.5 C 106.174,406.334 113.841,406.5 121.5,407C 122.435,409.381 122.768,411.881 122.5,414.5C 120.167,414.5 117.833,414.5 115.5,414.5C 115.666,422.174 115.5,429.841 115,437.5C 112.333,438.833 109.667,438.833 107,437.5C 106.5,429.841 106.334,422.174 106.5,414.5C 103.833,414.5 101.167,414.5 98.5,414.5C 98.5,411.833 98.5,409.167 98.5,406.5 Z"/></g>
<g><path style="opacity:1" fill="#152c3a" d="M 191.5,407.5 C 187.393,407.518 183.393,408.185 179.5,409.5C 178.978,410.607 178.645,411.774 178.5,413C 179.193,417.81 179.693,422.643 180,427.5C 182.478,428.804 183.978,427.97 184.5,425C 183.847,421.061 183.347,416.895 183,412.5C 183.561,411.978 184.228,411.645 185,411.5C 186.722,411.611 186.888,412.111 185.5,413C 187.708,413.191 189.708,413.691 191.5,414.5C 189.167,414.5 186.833,414.5 184.5,414.5C 184.674,416.861 185.007,419.194 185.5,421.5C 187.833,421.5 190.167,421.5 192.5,421.5C 190.631,422.165 188.631,422.831 186.5,423.5C 187.833,424.5 187.833,425.5 186.5,426.5C 189.751,427.22 192.917,427.553 196,427.5C 196.278,426.584 196.778,425.918 197.5,425.5C 199.599,430.035 201.932,434.369 204.5,438.5C 201.482,438.665 198.482,438.498 195.5,438C 193.5,435 191.5,432 189.5,429C 187.866,428.506 186.199,428.34 184.5,428.5C 184.5,431.833 184.5,435.167 184.5,438.5C 181.881,438.768 179.381,438.435 177,437.5C 176.333,427.5 176.333,417.5 177,407.5C 181.933,406.176 186.766,406.176 191.5,407.5 Z"/></g>
<g><path style="opacity:1" fill="#122d3e" d="M 69.5,431.5 C 69.7394,433.467 69.4061,435.301 68.5,437C 61.8417,437.5 55.175,437.666 48.5,437.5C 47.1712,427.431 47.1712,417.265 48.5,407C 51.0991,406.231 53.5991,406.398 56,407.5C 56.4997,415.159 56.6664,422.826 56.5,430.5C 61.0323,430.182 65.3656,430.515 69.5,431.5 Z"/></g>
<g><path style="opacity:1" fill="#48565a" d="M 405.5,430.5 C 409.833,430.5 414.167,430.5 418.5,430.5C 418.802,433.059 418.468,435.393 417.5,437.5C 417.5,435.5 417.5,433.5 417.5,431.5C 413.298,431.817 409.298,431.483 405.5,430.5 Z"/></g>
<g><path style="opacity:1" fill="#132a3b" d="M 334.5,406.5 C 342.169,405.817 349.502,406.984 356.5,410C 360.901,416.1 360.234,421.6 354.5,426.5C 356.086,429.341 357.92,432.007 360,434.5C 360.684,435.784 360.517,436.951 359.5,438C 357.167,438.667 354.833,438.667 352.5,438C 350.5,435 348.5,432 346.5,429C 344.866,428.506 343.199,428.34 341.5,428.5C 341.5,431.833 341.5,435.167 341.5,438.5C 338.881,438.768 336.381,438.435 334,437.5C 333.192,427.09 333.359,416.757 334.5,406.5 Z"/></g>
<g><path style="opacity:1" fill="#f1f7f7" d="M 341.5,414.5 C 344.187,414.336 346.854,414.503 349.5,415C 351.032,417.33 350.698,419.33 348.5,421C 346.19,421.497 343.857,421.663 341.5,421.5C 341.5,419.167 341.5,416.833 341.5,414.5 Z"/></g>
<g><path style="opacity:1" fill="#132b3f" d="M 405.5,418.5 C 408.962,419.482 412.629,419.815 416.5,419.5C 416.5,421.5 416.5,423.5 416.5,425.5C 412.818,425.335 409.152,425.501 405.5,426C 404.199,427.616 404.199,429.116 405.5,430.5C 409.298,431.483 413.298,431.817 417.5,431.5C 417.5,433.5 417.5,435.5 417.5,437.5C 410.765,438.827 403.932,438.827 397,437.5C 396.333,427.5 396.333,417.5 397,407.5C 403.418,406.357 409.918,406.19 416.5,407C 418.291,409.106 418.958,411.606 418.5,414.5C 413.833,414.5 409.167,414.5 404.5,414.5C 404.232,416.099 404.566,417.432 405.5,418.5 Z"/></g>
<g><path style="opacity:1" fill="#525f67" d="M 69.5,431.5 C 70.8112,433.56 70.8112,435.726 69.5,438C 62.3209,438.821 55.3209,438.655 48.5,437.5C 55.175,437.666 61.8417,437.5 68.5,437C 69.4061,435.301 69.7394,433.467 69.5,431.5 Z"/></g>
<g><path style="opacity:1" fill="#2b7894" d="M 168.5,455.5 C 171.85,455.335 175.183,455.502 178.5,456C 181.982,463.047 179.649,466.214 171.5,465.5C 171.5,467.167 171.5,468.833 171.5,470.5C 170.5,470.5 169.5,470.5 168.5,470.5C 168.5,465.5 168.5,460.5 168.5,455.5 Z"/></g>
<g><path style="opacity:1" fill="#2d7190" d="M 184.5,455.5 C 193.704,454.018 196.371,457.351 192.5,465.5C 193.167,466.833 193.833,468.167 194.5,469.5C 191.712,470.752 190.046,469.752 189.5,466.5C 189.831,464.678 190.498,463.011 191.5,461.5C 190.952,458.916 189.285,457.916 186.5,458.5C 185.094,458.027 184.427,457.027 184.5,455.5 Z"/></g>
<g><path style="opacity:1" fill="#317790" d="M 253.5,455.5 C 257.167,455.5 260.833,455.5 264.5,455.5C 264.5,456.5 264.5,457.5 264.5,458.5C 262.167,458.5 259.833,458.5 257.5,458.5C 257.5,459.5 257.5,460.5 257.5,461.5C 259.924,461.192 262.257,461.526 264.5,462.5C 264.291,463.086 263.957,463.586 263.5,464C 261.527,464.495 259.527,464.662 257.5,464.5C 257.5,465.5 257.5,466.5 257.5,467.5C 259.833,467.5 262.167,467.5 264.5,467.5C 264.5,468.5 264.5,469.5 264.5,470.5C 260.833,470.5 257.167,470.5 253.5,470.5C 253.5,465.5 253.5,460.5 253.5,455.5 Z"/></g>
<g><path style="opacity:1" fill="#419a94" d="M 361.5,455.5 C 365.167,455.5 368.833,455.5 372.5,455.5C 372.5,456.5 372.5,457.5 372.5,458.5C 370.167,458.5 367.833,458.5 365.5,458.5C 365.5,459.5 365.5,460.5 365.5,461.5C 367.924,461.192 370.257,461.526 372.5,462.5C 372.291,463.086 371.957,463.586 371.5,464C 369.527,464.495 367.527,464.662 365.5,464.5C 365.5,465.5 365.5,466.5 365.5,467.5C 368.167,467.5 370.833,467.5 373.5,467.5C 373.5,468.5 373.5,469.5 373.5,470.5C 369.5,470.5 365.5,470.5 361.5,470.5C 361.5,465.5 361.5,460.5 361.5,455.5 Z"/></g>
<g><path style="opacity:1" fill="#30788f" d="M 210.5,455.5 C 213.85,455.335 217.183,455.502 220.5,456C 224.486,462.835 222.486,466.002 214.5,465.5C 214.5,467.167 214.5,468.833 214.5,470.5C 213.167,470.5 211.833,470.5 210.5,470.5C 210.5,465.5 210.5,460.5 210.5,455.5 Z"/></g>
<g><path style="opacity:1" fill="#3a9896" d="M 339.5,454.5 C 341.936,454.749 343.936,455.749 345.5,457.5C 345.167,458.5 344.5,459.167 343.5,459.5C 337.38,457.118 335.213,459.118 337,465.5C 337.804,466.804 338.971,467.471 340.5,467.5C 342.135,466.954 343.801,466.62 345.5,466.5C 345.126,469.62 343.293,470.954 340,470.5C 333.92,469.358 331.586,465.691 333,459.5C 334.272,456.508 336.438,454.841 339.5,454.5 Z"/></g>
<g><path style="opacity:1" fill="#369e95" d="M 102.5,455.5 C 103.822,455.33 104.989,455.663 106,456.5C 108.146,461.117 109.98,465.784 111.5,470.5C 108.657,469.995 105.99,468.995 103.5,467.5C 101.653,468.186 99.9863,469.186 98.5,470.5C 97.8333,470.167 97.1667,469.833 96.5,469.5C 98.3124,464.722 100.312,460.055 102.5,455.5 Z"/></g>
<g><path style="opacity:1" fill="#2c7e9a" d="M 228.5,455.5 C 229.978,455.238 231.311,455.571 232.5,456.5C 233.97,460.912 235.637,465.245 237.5,469.5C 237,469.833 236.5,470.167 236,470.5C 234.527,468.954 232.694,467.954 230.5,467.5C 228.319,468.871 225.986,469.871 223.5,470.5C 224.564,465.308 226.231,460.308 228.5,455.5 Z"/></g>
<g><path style="opacity:1" fill="#e4f7f9" d="M 171.5,458.5 C 173.167,458.5 174.833,458.5 176.5,458.5C 176.5,459.833 176.5,461.167 176.5,462.5C 174.833,462.5 173.167,462.5 171.5,462.5C 171.5,461.167 171.5,459.833 171.5,458.5 Z"/></g>
<g><path style="opacity:1" fill="#e4f4f9" d="M 186.5,458.5 C 189.285,457.916 190.952,458.916 191.5,461.5C 189.621,462.341 187.621,462.675 185.5,462.5C 185.433,461.041 185.766,459.708 186.5,458.5 Z"/></g>
<g><path style="opacity:1" fill="#f0fcfe" d="M 214.5,458.5 C 216.665,458.116 218.332,458.783 219.5,460.5C 218.332,462.217 216.665,462.884 214.5,462.5C 214.5,461.167 214.5,459.833 214.5,458.5 Z"/></g>
<g><path style="opacity:1" fill="#50a196" d="M 153.5,460.5 C 157.485,460.629 158.818,462.463 157.5,466C 152.728,466.81 151.395,464.977 153.5,460.5 Z"/></g>
<g><path style="opacity:1" fill="#329795" d="M 84.5,455.5 C 88.226,455.177 91.8927,455.511 95.5,456.5C 95.2907,457.086 94.9574,457.586 94.5,458C 92.1902,458.497 89.8568,458.663 87.5,458.5C 87.5,459.5 87.5,460.5 87.5,461.5C 89.924,461.192 92.2573,461.526 94.5,462.5C 94.2907,463.086 93.9574,463.586 93.5,464C 91.5273,464.495 89.5273,464.662 87.5,464.5C 87.5,465.5 87.5,466.5 87.5,467.5C 90.1667,467.5 92.8333,467.5 95.5,467.5C 95.5,468.5 95.5,469.5 95.5,470.5C 91.8333,470.5 88.1667,470.5 84.5,470.5C 84.5,465.5 84.5,460.5 84.5,455.5 Z"/></g>
<g><path style="opacity:1" fill="#d4f8f8" d="M 103.5,461.5 C 105.104,462.287 105.771,463.62 105.5,465.5C 104.5,465.5 103.5,465.5 102.5,465.5C 102.433,464.041 102.766,462.708 103.5,461.5 Z"/></g>
<g><path style="opacity:1" fill="#328293" d="M 184.5,455.5 C 184.427,457.027 185.094,458.027 186.5,458.5C 185.766,459.708 185.433,461.041 185.5,462.5C 187.621,462.675 189.621,462.341 191.5,461.5C 190.498,463.011 189.831,464.678 189.5,466.5C 188.85,466.196 188.183,465.863 187.5,465.5C 186.548,467.045 186.215,468.712 186.5,470.5C 185.167,470.5 183.833,470.5 182.5,470.5C 181.892,465.056 182.558,460.056 184.5,455.5 Z"/></g>
<g><path style="opacity:1" fill="#bde4f2" d="M 229.5,461.5 C 231.176,462.183 231.843,463.517 231.5,465.5C 230.5,465.5 229.5,465.5 228.5,465.5C 228.433,464.041 228.766,462.708 229.5,461.5 Z"/></g>
<g><path style="opacity:1" fill="#2b7a97" d="M 239.5,455.5 C 242.518,455.335 245.518,455.502 248.5,456C 250.368,456.899 251.368,458.399 251.5,460.5C 248.986,463.532 248.986,466.532 251.5,469.5C 250.277,470.614 248.944,470.781 247.5,470C 244.702,463.964 243.035,464.131 242.5,470.5C 241.5,470.5 240.5,470.5 239.5,470.5C 239.5,465.5 239.5,460.5 239.5,455.5 Z"/></g>
<g><path style="opacity:1" fill="#e8fafc" d="M 242.5,458.5 C 244.167,458.5 245.833,458.5 247.5,458.5C 247.5,459.833 247.5,461.167 247.5,462.5C 245.833,462.5 244.167,462.5 242.5,462.5C 242.5,461.167 242.5,459.833 242.5,458.5 Z"/></g>
<g><path style="opacity:1" fill="#39988c" d="M 275.5,460.5 C 279.35,460.701 280.35,462.534 278.5,466C 274.537,466.118 273.537,464.284 275.5,460.5 Z"/></g>
<g><path style="opacity:1" fill="#399593" d="M 348.5,455.5 C 352.167,455.5 355.833,455.5 359.5,455.5C 359.5,456.5 359.5,457.5 359.5,458.5C 357.167,458.5 354.833,458.5 352.5,458.5C 352.5,459.5 352.5,460.5 352.5,461.5C 354.5,461.5 356.5,461.5 358.5,461.5C 358.5,462.5 358.5,463.5 358.5,464.5C 356.167,464.5 353.833,464.5 351.5,464.5C 351.5,465.5 351.5,466.5 351.5,467.5C 354.167,467.5 356.833,467.5 359.5,467.5C 359.5,468.5 359.5,469.5 359.5,470.5C 355.833,470.5 352.167,470.5 348.5,470.5C 348.5,465.5 348.5,460.5 348.5,455.5 Z"/></g>
<g><path style="opacity:1" fill="#339d98" d="M 113.5,455.5 C 117.106,455.211 120.606,455.544 124,456.5C 125.967,459.628 125.8,462.628 123.5,465.5C 124.046,467.135 124.38,468.801 124.5,470.5C 123.448,470.649 122.448,470.483 121.5,470C 118.513,464.115 116.846,464.282 116.5,470.5C 115.5,470.5 114.5,470.5 113.5,470.5C 113.5,465.5 113.5,460.5 113.5,455.5 Z"/></g>
<g><path style="opacity:1" fill="#eefcfc" d="M 116.5,458.5 C 118.167,458.5 119.833,458.5 121.5,458.5C 121.616,461.91 119.95,463.244 116.5,462.5C 116.5,461.167 116.5,459.833 116.5,458.5 Z"/></g>
<g><path style="opacity:1" fill="#3ba49b" d="M 127.5,455.5 C 128.873,455.343 130.207,455.51 131.5,456C 133.333,458.5 135.167,461 137,463.5C 138.375,461.063 138.875,458.397 138.5,455.5C 139.5,455.5 140.5,455.5 141.5,455.5C 141.5,460.5 141.5,465.5 141.5,470.5C 140.448,470.649 139.448,470.483 138.5,470C 136.607,467.697 134.607,465.53 132.5,463.5C 131.692,465.423 131.192,467.423 131,469.5C 129.989,470.337 128.822,470.67 127.5,470.5C 127.5,465.5 127.5,460.5 127.5,455.5 Z"/></g>
<g><path style="opacity:1" fill="#2f7293" d="M 197.5,455.5 C 201.167,455.5 204.833,455.5 208.5,455.5C 208.5,456.5 208.5,457.5 208.5,458.5C 205.833,458.5 203.167,458.5 200.5,458.5C 200.5,459.5 200.5,460.5 200.5,461.5C 202.833,461.5 205.167,461.5 207.5,461.5C 207.5,462.5 207.5,463.5 207.5,464.5C 205.167,464.5 202.833,464.5 200.5,464.5C 200.5,465.5 200.5,466.5 200.5,467.5C 203.167,467.5 205.833,467.5 208.5,467.5C 208.5,468.5 208.5,469.5 208.5,470.5C 204.833,470.5 201.167,470.5 197.5,470.5C 197.5,465.5 197.5,460.5 197.5,455.5 Z"/></g>
<g><path style="opacity:1" fill="#399a89" d="M 293.5,454.5 C 296.278,454.022 298.278,455.022 299.5,457.5C 297.5,458.167 295.5,458.833 293.5,459.5C 295.427,461.102 297.594,462.435 300,463.5C 300.812,470.001 297.979,472.168 291.5,470C 290.027,469.29 289.36,468.124 289.5,466.5C 292.208,467.449 294.874,467.449 297.5,466.5C 294.959,464.926 292.459,463.259 290,461.5C 289.176,458.16 290.343,455.827 293.5,454.5 Z"/></g>
<g><path style="opacity:1" fill="#329e8d" d="M 71.5,455.5 C 72.5,455.5 73.5,455.5 74.5,455.5C 74.5,459.5 74.5,463.5 74.5,467.5C 77.1667,467.5 79.8333,467.5 82.5,467.5C 82.5,468.5 82.5,469.5 82.5,470.5C 78.8333,470.5 75.1667,470.5 71.5,470.5C 71.5,465.5 71.5,460.5 71.5,455.5 Z"/></g>
<g><path style="opacity:1" fill="#36a192" d="M 303.5,455.5 C 304.5,455.5 305.5,455.5 306.5,455.5C 306.335,458.85 306.502,462.183 307,465.5C 308.312,467.658 309.978,467.991 312,466.5C 312.499,462.848 312.665,459.182 312.5,455.5C 313.5,455.5 314.5,455.5 315.5,455.5C 315.666,459.846 315.499,464.179 315,468.5C 311.057,471.366 307.39,471.032 304,467.5C 303.501,463.514 303.334,459.514 303.5,455.5 Z"/></g>
<g><path style="opacity:1" fill="#3ea196" d="M 324.5,454.5 C 327.097,454.643 329.431,455.477 331.5,457C 330.646,458.022 329.646,458.855 328.5,459.5C 323.544,457.626 321.378,459.293 322,464.5C 324.177,467.722 327.01,468.389 330.5,466.5C 330.763,469.734 329.263,471.068 326,470.5C 318.841,469.607 316.508,465.607 319,458.5C 320.5,456.531 322.333,455.198 324.5,454.5 Z"/></g>
<g><path style="opacity:1" fill="#3aa096" d="M 375.5,455.5 C 378.85,455.335 382.183,455.502 385.5,456C 390.313,460.041 390.646,464.375 386.5,469C 382.94,470.237 379.273,470.737 375.5,470.5C 375.5,465.5 375.5,460.5 375.5,455.5 Z"/></g>
<g><path style="opacity:1" fill="#f4fafb" d="M 379.5,458.5 C 385.661,458.943 386.995,461.777 383.5,467C 382.207,467.49 380.873,467.657 379.5,467.5C 379.5,464.5 379.5,461.5 379.5,458.5 Z"/></g>
</svg>